<svg width="20" height="20" viewBox="0 0 20 20" fill="none" xmlns="http://www.w3.org/2000/svg">
<path d="M10.4477 0.00790625C11.1263 0.251906 11.6823 0.634573 11.9237 1.35591C12.091 1.84495 12.06 2.38008 11.8374 2.84657C11.6148 3.31305 11.2183 3.67374 10.7329 3.8513C10.2474 4.02886 9.71178 4.00916 9.24072 3.79641C8.76966 3.58367 8.40071 3.19482 8.21298 2.71324C8.01975 2.23924 8.02017 1.70836 8.21413 1.23466C8.4081 0.760966 8.78014 0.382256 9.25032 0.179906C9.38365 0.119906 9.51698 0.0625729 9.65032 0.00390625L10.4477 0.00790625Z" fill="black"/>
<path d="M12.4309 6.5333V18.4C12.4309 18.548 12.4309 18.6986 12.4309 18.8466C12.4202 19.1312 12.2985 19.4003 12.092 19.5964C11.8854 19.7925 11.6104 19.9 11.3256 19.896C11.1841 19.8951 11.0441 19.8663 10.9138 19.8111C10.7835 19.7559 10.6654 19.6755 10.5662 19.5745C10.4671 19.4735 10.3889 19.3539 10.3362 19.2226C10.2834 19.0913 10.2572 18.9508 10.2589 18.8093C10.2429 17.7826 10.2589 16.7546 10.2589 15.728C10.2589 14.6013 10.2589 13.4746 10.2589 12.348C10.2589 12.2053 10.3923 11.948 10.0803 11.9386C9.70694 11.9226 9.87094 12.2173 9.87094 12.3653C9.85894 14.4866 9.87094 16.608 9.86027 18.728C9.86027 19.36 9.48161 19.808 8.92694 19.8893C8.66148 19.9254 8.39205 19.862 8.17051 19.7113C7.94898 19.5607 7.79098 19.3334 7.72694 19.0733C7.69304 18.8945 7.68051 18.7124 7.68961 18.5306C7.68961 16.3084 7.68961 14.0862 7.68961 11.864C7.68961 10.224 7.68161 8.58397 7.68961 6.94264C7.68961 6.60664 7.64827 6.52664 7.28961 6.6533C6.15494 7.0533 5.07227 6.87197 4.05894 6.2533C3.35013 5.80873 2.74019 5.2233 2.26694 4.5333C1.98427 4.1333 2.03094 3.7253 2.37094 3.48664C2.68961 3.26397 3.09894 3.33464 3.37494 3.6853C3.6831 4.09692 4.03841 4.47102 4.43361 4.79997C5.50827 5.65064 6.62827 5.67864 7.70427 4.84664C7.93186 4.65568 8.22055 4.55298 8.51761 4.5573C9.54428 4.56664 10.5723 4.5573 11.5989 4.5573C11.8644 4.54879 12.1243 4.63478 12.3323 4.79997C13.5069 5.7093 14.6149 5.67997 15.7549 4.73197C16.104 4.4259 16.42 4.08403 16.6976 3.71197C16.9976 3.3373 17.4083 3.2573 17.7349 3.49864C18.0616 3.73997 18.1123 4.15464 17.8176 4.5493C16.9749 5.67997 15.9749 6.58397 14.5163 6.82797C13.8083 6.9413 13.1403 6.77464 12.4309 6.5333Z" fill="black"/>
</svg>
