<svg width="20" height="20" viewBox="0 0 20 20" fill="none" xmlns="http://www.w3.org/2000/svg">
<path d="M14.983 5.32603H13.7497V1.59766C13.7497 0.716811 13.0331 0 12.152 0H7.84715C6.96629 0 6.2494 0.716811 6.2494 1.59766V5.32595H5.01622C4.24578 5.32595 3.62109 5.95063 3.62109 6.72108V17.2547C3.62109 18.0254 4.24594 18.65 5.01622 18.65H5.2033V19.6627C5.2033 19.8492 5.35437 20 5.5404 20H7.13581C7.32224 20 7.47308 19.8489 7.47308 19.6627V18.65H12.5257V19.6627C12.5257 19.8492 12.6769 20 12.863 20H14.4582C14.6448 20 14.7955 19.8489 14.7955 19.6627V18.65H14.9828C15.7532 18.65 16.3779 18.0253 16.3779 17.2547V6.72116C16.3781 5.95055 15.7534 5.32603 14.983 5.32603ZM12.6844 5.32595H7.31435V1.59766C7.31435 1.30405 7.55329 1.06511 7.8469 1.06511H12.1518C12.4454 1.06511 12.6844 1.30405 12.6844 1.59766V5.32595Z" fill="black"/>
</svg>
