<svg width="20" height="20" viewBox="0 0 20 20" fill="none" xmlns="http://www.w3.org/2000/svg">
<path d="M14.166 1.66675H5.83268C3.53268 1.66675 1.66602 3.52508 1.66602 5.81675V10.8001V11.6334C1.66602 13.9251 3.53268 15.7834 5.83268 15.7834H7.08268C7.30768 15.7834 7.60768 15.9334 7.74935 16.1167L8.99935 17.7751C9.54935 18.5084 10.4493 18.5084 10.9993 17.7751L12.2493 16.1167C12.4077 15.9084 12.6577 15.7834 12.916 15.7834H14.166C16.466 15.7834 18.3327 13.9251 18.3327 11.6334V5.81675C18.3327 3.52508 16.466 1.66675 14.166 1.66675ZM10.8327 11.4584H5.83268C5.49102 11.4584 5.20768 11.1751 5.20768 10.8334C5.20768 10.4917 5.49102 10.2084 5.83268 10.2084H10.8327C11.1743 10.2084 11.4577 10.4917 11.4577 10.8334C11.4577 11.1751 11.1743 11.4584 10.8327 11.4584ZM14.166 7.29175H5.83268C5.49102 7.29175 5.20768 7.00841 5.20768 6.66675C5.20768 6.32508 5.49102 6.04175 5.83268 6.04175H14.166C14.5077 6.04175 14.791 6.32508 14.791 6.66675C14.791 7.00841 14.5077 7.29175 14.166 7.29175Z" fill="black"/>
</svg>
