<svg width="20" height="20" viewBox="0 0 20 20" fill="none" xmlns="http://www.w3.org/2000/svg">
<g clip-path="url(#clip0_13225_144634)">
<path d="M19.7958 4.58744L19.7528 4.54922C19.3815 4.28935 18.8528 4.15259 18.2247 4.15259C17.2263 4.15259 16.1922 4.49117 15.7259 4.80875L12.0506 7.31804L4.88615 8.8398C4.82343 8.85346 4.76521 8.87801 4.71205 8.91418C4.57295 9.01056 4.49274 9.17454 4.5019 9.34297C4.51624 9.58484 4.70105 9.7771 4.93953 9.79927L7.96938 10.1044L5.01608 12.1203C4.13677 11.7167 3.30201 11.3251 2.53413 10.9574C1.34412 10.387 0.567243 10.2867 0.202163 10.6519C-0.177915 11.0322 0.0697303 11.682 0.20533 11.8801L3.0502 15.5684C3.14591 15.7082 3.25585 15.7883 3.38778 15.8123C3.60676 15.85 3.79691 15.7189 3.99506 15.5784L4.71539 15.0821L8.7171 13.139L8.13148 15.2305C8.06726 15.4623 8.17937 15.7028 8.39835 15.8039C8.46056 15.8326 8.53061 15.8475 8.59983 15.8475C8.6986 15.8475 8.79315 15.8182 8.87553 15.7631C8.92875 15.7274 8.97141 15.6828 9.00696 15.6287L11.2968 12.1488L12.6974 10.51L18.9086 6.26968C19.0037 6.20513 19.0964 6.14558 19.1894 6.08553C19.4036 5.94893 19.606 5.81933 19.7519 5.67223C20.0657 5.35948 20.0837 5.0104 19.7958 4.58744Z" fill="black"/>
</g>
<defs>
<clipPath id="clip0_13225_144634">
<rect width="20" height="20" fill="white"/>
</clipPath>
</defs>
</svg>
