<svg width="20" height="20" viewBox="0 0 20 20" fill="none" xmlns="http://www.w3.org/2000/svg">
<g clip-path="url(#clip0_13225_144651)">
<path d="M4.76758 0.00341797C5.10234 0.0481238 5.24297 0.301065 5.39492 0.561849C6.08555 1.74891 6.78633 2.92969 7.48398 4.11283C7.50828 4.15884 7.53528 4.20337 7.56484 4.24616C8.03828 4.86656 7.90508 5.51244 7.44258 6.04303C7.175 6.35048 6.84297 6.58224 6.52266 6.82734C6.26445 7.02342 5.9918 7.20499 5.76602 7.44263C5.42773 7.79871 5.39961 8.03087 5.63828 8.45361C6.62148 10.1964 7.82578 11.754 9.40703 12.996C10.1565 13.5796 10.9579 14.0926 11.8012 14.5285C11.9906 14.6273 12.1633 14.6069 12.3332 14.4956C12.5423 14.3505 12.7263 14.1719 12.8777 13.9669C13.1902 13.5666 13.4781 13.1434 13.8461 12.7905C14.1465 12.5018 14.4762 12.2638 14.9109 12.2324C15.1722 12.2156 15.4324 12.279 15.657 12.414C16.8445 13.099 18.0318 13.7845 19.2188 14.4705C19.632 14.7101 19.8668 15.0795 19.9586 15.5454C19.9652 15.5807 19.948 15.6266 19.9977 15.645V16.3117C19.9344 16.9917 19.6746 17.5979 19.2766 18.1403C18.8508 18.7199 18.2883 19.1352 17.6254 19.4113C16.8141 19.7489 15.9719 19.9505 15.091 19.9764C15.0717 19.9769 15.0531 19.9839 15.0383 19.9964H14.9602C14.9554 19.9905 14.9495 19.9858 14.9427 19.9826C14.936 19.9794 14.9286 19.9777 14.9211 19.9777C14.9136 19.9777 14.9062 19.9794 14.8995 19.9826C14.8927 19.9858 14.8868 19.9905 14.882 19.9964H14.7258C14.5581 19.9638 14.3857 19.9638 14.218 19.9964H13.9445C13.4403 19.9631 12.9407 19.8776 12.4539 19.7415C11.5555 19.4818 10.707 19.103 9.89531 18.6434C8.89844 18.0775 7.92109 17.4803 7.00469 16.7858C6.08288 16.0819 5.22201 15.3011 4.43125 14.4517C3.44023 13.3928 2.55195 12.2524 1.80898 11.0034C0.9625 9.57793 0.3125 8.07597 0.0589844 6.42303C0.0292969 6.23126 0.05 6.03479 0.00390625 5.84303V5.64695C0.0277344 5.62538 0.0230469 5.59597 0.0238281 5.56852C0.0246094 5.54106 0.0277344 5.51165 0.00390625 5.49008V4.58812C0.0429688 4.52381 0.0144531 4.45283 0.0238281 4.38538C0.0550781 3.22656 0.427344 2.19597 1.18477 1.31087C1.72266 0.683418 2.4043 0.291261 3.2 0.0893003C3.43438 0.0304768 3.67422 0.0500846 3.90859 0.00341797H4.14297C4.2844 0.0356292 4.43122 0.0356292 4.57266 0.00341797H4.76758Z" fill="black"/>
<path d="M14.2188 19.9959C14.3821 19.9324 14.5632 19.9324 14.7266 19.9959H14.2188Z" fill="#525252"/>
<path d="M4.57227 0.00341797C4.50505 0.0351342 4.43169 0.051578 4.35742 0.051578C4.28315 0.051578 4.20979 0.0351342 4.14258 0.00341797H4.57227Z" fill="#4F4F4F"/>
<path d="M0.00390625 4.39406C0.015468 4.39169 0.0273111 4.39103 0.0390625 4.39209C0.0441406 4.46151 0.0683594 4.53406 0.00546875 4.5917L0.00390625 4.39406Z" fill="#8E8E8E"/>
<path d="M0.00390625 5.48999C0.0402344 5.50646 0.0429687 5.53666 0.0367187 5.57077C0.0246094 5.58646 0.0136719 5.58489 0.00390625 5.56842V5.48999Z" fill="#4E4E4E"/>
<path d="M0.00390625 5.5686L0.0367187 5.57096C0.0414062 5.60311 0.0480469 5.63605 0.00390625 5.64703V5.5686Z" fill="#6E6E6E"/>
<path d="M14.8828 19.996C14.909 19.9427 14.9352 19.9376 14.9609 19.996H14.8828Z" fill="#999999"/>
</g>
<defs>
<clipPath id="clip0_13225_144651">
<rect width="20" height="20" fill="white"/>
</clipPath>
</defs>
</svg>
