<svg width="20" height="20" viewBox="0 0 20 20" fill="none" xmlns="http://www.w3.org/2000/svg">
<g clip-path="url(#clip0_13225_144646)">
<path d="M8.2504 8.90039C8.44451 9.68121 8.62609 10.4132 8.80831 11.1445C8.94481 11.688 9.08945 12.2296 9.21656 12.7757C9.25413 12.936 9.30923 12.9967 9.48768 12.9961C10.9629 12.9867 12.4387 12.9923 13.914 12.9879C14.0601 12.9816 14.2034 13.0288 14.3172 13.1207C16.123 14.5354 17.9318 15.9455 19.7435 17.351C19.8887 17.4637 19.905 17.5219 19.7654 17.6546C19.3584 18.0422 18.962 18.4417 18.5725 18.8443C18.4592 18.9627 18.3941 18.9758 18.2595 18.8681C17.0992 17.9458 15.9302 17.0348 14.7674 16.1131C14.6606 16.0242 14.525 15.9774 14.3861 15.9816C12.1929 15.9853 9.99925 15.9864 7.80521 15.9847C6.33688 15.9847 5.14906 15.0398 4.82159 13.6053C4.37743 11.6617 3.93579 9.71731 3.49664 7.77206C3.28 6.81655 3.64755 5.90738 4.47157 5.35198C5.21043 4.85106 6.26111 4.87986 7.02001 5.43714C7.67372 5.91677 8.29799 6.43898 8.96109 6.90734C10.0297 7.68295 11.322 8.08917 12.6422 8.06448C12.8522 8.05917 13.0615 8.03824 13.2684 8.00186C13.3836 7.98308 13.3936 8.02065 13.3936 8.11707C13.3936 8.73383 13.3886 9.3506 13.3936 9.96736C13.3936 10.0926 13.3504 10.1189 13.2365 10.1352C12.1094 10.2998 11.0343 10.1057 9.98046 9.71502C9.38405 9.48752 8.80571 9.2152 8.2504 8.90039V8.90039Z" fill="black"/>
<path d="M10.1135 18.9836C8.94322 18.9836 7.77106 19.0156 6.60141 18.9774C4.34725 18.9022 2.39053 17.1678 1.95597 14.9619C1.38805 12.0816 0.788824 9.20564 0.202745 6.32783C0.123223 5.93837 0.0480847 5.54827 -0.0389507 5.16068C-0.069006 5.02919 -0.0320628 4.99976 0.093794 5.00101C0.657332 5.00602 1.22087 5.00728 1.78003 5.00101C1.91402 5.00101 1.94345 5.05612 1.96787 5.17508C2.41328 7.33323 2.86244 9.49116 3.31535 11.6489C3.52449 12.6557 3.72423 13.6645 3.94151 14.6701C4.23204 16.0326 5.46494 16.995 6.92137 16.9969C9.1534 17.0002 11.3867 17.0002 13.6212 16.9969C13.9236 16.9969 13.9236 16.9969 13.9236 17.3099C13.9236 17.8015 13.9168 18.2936 13.928 18.7852C13.9318 18.9473 13.8905 18.9918 13.7252 18.9905C12.5229 18.983 11.3207 18.9868 10.1185 18.9868L10.1135 18.9836Z" fill="black"/>
<path d="M6.42218 2.02233C6.41949 2.2858 6.36475 2.54613 6.26111 2.78837C6.15747 3.03061 6.00697 3.24997 5.81826 3.43385C5.62956 3.61772 5.40637 3.76249 5.16152 3.85982C4.91668 3.95714 4.65502 4.00512 4.39157 4.00098C3.31396 3.99221 2.41668 3.0655 2.42983 1.97036C2.43672 1.44094 2.65364 0.935945 3.03287 0.566462C3.4121 0.196979 3.92257 -0.0067224 4.45199 0.000169348C4.98141 0.0070611 5.48641 0.223982 5.85589 0.603211C6.22538 0.98244 6.42908 1.49291 6.42218 2.02233V2.02233Z" fill="black"/>
</g>
<defs>
<clipPath id="clip0_13225_144646">
<rect width="20" height="20" fill="white"/>
</clipPath>
</defs>
</svg>
