<svg width="20" height="20" viewBox="0 0 20 20" fill="none" xmlns="http://www.w3.org/2000/svg">
<g clip-path="url(#clip0_13225_144639)">
<path d="M6.66732 8.61758V10.4459C5.67065 11.0226 5.00065 12.1001 5.00065 13.3334C5.00065 15.1751 6.49232 16.6667 8.33398 16.6667C9.56732 16.6667 10.6448 15.9967 11.2215 15.0001H13.049C12.3632 16.9417 10.5107 18.3334 8.33398 18.3334C5.57232 18.3334 3.33398 16.0951 3.33398 13.3334C3.33398 11.1559 4.72565 9.30425 6.66732 8.61758V8.61758ZM10.0007 14.1667C8.61982 14.1667 7.50065 13.0476 7.50065 11.6667V8.33341C7.50065 6.95258 8.61982 5.83341 10.0007 5.83341C11.3815 5.83341 12.5007 6.95258 12.5007 8.33341V12.5001H13.6957C14.2357 12.5001 14.7398 12.7617 15.0507 13.1967L15.1248 13.3092L17.3815 17.0717L15.9532 17.9284L13.6948 14.1667H10.0007ZM10.0007 1.66675C11.1507 1.66675 12.084 2.60008 12.084 3.75008C12.084 4.90008 11.1507 5.83341 10.0007 5.83341C8.85065 5.83341 7.91732 4.90008 7.91732 3.75008C7.91732 2.60008 8.85065 1.66675 10.0007 1.66675Z" fill="black"/>
</g>
<defs>
<clipPath id="clip0_13225_144639">
<rect width="20" height="20" fill="white"/>
</clipPath>
</defs>
</svg>
