<svg width="409" height="70" viewBox="0 0 409 70" fill="none" xmlns="http://www.w3.org/2000/svg">
<path d="M92.4505 65.7563L88.3912 61.6973L84.332 65.7563L88.3912 69.8154L92.4505 65.7563Z" fill="#F43F69"/>
<path d="M40.6267 58.4398C38.377 56.1901 38.377 52.5553 40.6267 50.3165C42.8653 48.0781 46.5001 48.0781 48.7498 50.3165C50.9884 52.5553 50.9884 56.1901 48.7498 58.4398C46.5112 60.6784 42.8764 60.6784 40.6267 58.4398Z" fill="#F69245"/>
<path d="M106.172 39.7962C103.922 37.5466 103.922 33.9116 106.172 31.673C108.41 29.4345 112.045 29.4345 114.295 31.673C116.533 33.9116 116.533 37.5466 114.295 39.7962C112.045 42.0348 108.41 42.0348 106.172 39.7962Z" fill="#F69245"/>
<path d="M136.178 5.80159L128.059 -2.31641L119.941 5.80159L128.059 13.9199L136.178 5.80159Z" fill="#F43F69"/>
<path d="M106.17 39.7972C103.92 37.5475 103.92 33.9126 106.17 31.674C108.408 29.4355 112.043 29.4355 114.293 31.674C116.531 33.9126 116.531 37.5475 114.293 39.7972C112.043 42.0358 108.408 42.0358 106.17 39.7972Z" fill="#F69245"/>
<path d="M74.1111 26.7997C71.8614 24.55 71.8614 20.915 74.1111 18.6764C76.3497 16.4379 79.9845 16.4379 82.2342 18.6764C84.4728 20.915 84.4728 24.55 82.2342 26.7997C79.9845 29.0383 76.3497 29.0383 74.1111 26.7997Z" fill="#F69245"/>
<path d="M136.18 5.80159L128.061 -2.31641L119.943 5.80159L128.061 13.9199L136.18 5.80159Z" fill="#F43F69"/>
<path d="M57.9199 4.75374L49.8016 -3.36426L41.6836 4.75374L49.8016 12.872L57.9199 4.75374Z" fill="#F69245"/>
<path d="M9.07418 34.0449L4.53709 29.5078L0 34.0449L4.53709 38.582L9.07418 34.0449Z" fill="#F69245"/>
<path d="M101.061 -0.823262L96.5234 -5.36035L91.9863 -0.823262L96.5234 3.71383L101.061 -0.823262Z" fill="#F69245"/>
<path d="M12.6658 2.80209C10.4161 0.55241 10.4161 -3.08253 12.6658 -5.32115C14.9042 -7.55962 18.5393 -7.55962 20.789 -5.32115C23.0275 -3.08253 23.0275 0.55241 20.789 2.80209C18.5504 5.04071 14.9155 5.04071 12.6658 2.80209Z" fill="#F43F69"/>
<path d="M228.63 65.7563L224.571 61.6973L220.512 65.7563L224.571 69.8154L228.63 65.7563Z" fill="#F43F69"/>
<path d="M176.806 58.4398C174.557 56.1901 174.557 52.5553 176.806 50.3165C179.045 48.0781 182.68 48.0781 184.929 50.3165C187.168 52.5553 187.168 56.1901 184.929 58.4398C182.691 60.6784 179.056 60.6784 176.806 58.4398Z" fill="#F69245"/>
<path d="M242.351 39.7962C240.102 37.5466 240.102 33.9116 242.351 31.673C244.59 29.4345 248.225 29.4345 250.474 31.673C252.713 33.9116 252.713 37.5466 250.474 39.7962C248.225 42.0348 244.59 42.0348 242.351 39.7962Z" fill="#F69245"/>
<path d="M272.357 5.80159L264.239 -2.31641L256.121 5.80159L264.239 13.9199L272.357 5.80159Z" fill="#F43F69"/>
<path d="M242.349 39.7972C240.1 37.5475 240.1 33.9126 242.349 31.674C244.588 29.4355 248.223 29.4355 250.472 31.674C252.711 33.9126 252.711 37.5475 250.472 39.7972C248.223 42.0358 244.588 42.0358 242.349 39.7972Z" fill="#F69245"/>
<path d="M210.291 26.7997C208.041 24.55 208.041 20.915 210.291 18.6764C212.529 16.4379 216.164 16.4379 218.414 18.6764C220.652 20.915 220.652 24.55 218.414 26.7997C216.164 29.0383 212.529 29.0383 210.291 26.7997Z" fill="#F69245"/>
<path d="M272.359 5.80159L264.241 -2.31641L256.123 5.80159L264.241 13.9199L272.359 5.80159Z" fill="#F43F69"/>
<path d="M194.1 4.75374L185.981 -3.36426L177.863 4.75374L185.981 12.872L194.1 4.75374Z" fill="#F69245"/>
<path d="M145.254 34.0449L140.717 29.5078L136.18 34.0449L140.717 38.582L145.254 34.0449Z" fill="#F69245"/>
<path d="M237.24 -0.823262L232.703 -5.36035L228.166 -0.823262L232.703 3.71383L237.24 -0.823262Z" fill="#F69245"/>
<path d="M148.845 2.80209C146.596 0.55241 146.596 -3.08253 148.845 -5.32115C151.084 -7.55962 154.719 -7.55962 156.969 -5.32115C159.207 -3.08253 159.207 0.55241 156.969 2.80209C154.73 5.04071 151.095 5.04071 148.845 2.80209Z" fill="#F43F69"/>
<path d="M364.81 65.7563L360.751 61.6973L356.691 65.7563L360.751 69.8154L364.81 65.7563Z" fill="#F43F69"/>
<path d="M312.986 58.4398C310.736 56.1901 310.736 52.5553 312.986 50.3165C315.225 48.0781 318.86 48.0781 321.109 50.3165C323.348 52.5553 323.348 56.1901 321.109 58.4398C318.871 60.6784 315.236 60.6784 312.986 58.4398Z" fill="#F69245"/>
<path d="M378.531 39.7962C376.281 37.5466 376.281 33.9116 378.531 31.673C380.77 29.4345 384.404 29.4345 386.654 31.673C388.893 33.9116 388.893 37.5466 386.654 39.7962C384.404 42.0348 380.77 42.0348 378.531 39.7962Z" fill="#F69245"/>
<path d="M408.537 5.80159L400.419 -2.31641L392.301 5.80159L400.419 13.9199L408.537 5.80159Z" fill="#F43F69"/>
<path d="M378.529 39.7972C376.279 37.5475 376.279 33.9126 378.529 31.674C380.768 29.4355 384.402 29.4355 386.652 31.674C388.891 33.9126 388.891 37.5475 386.652 39.7972C384.402 42.0358 380.768 42.0358 378.529 39.7972Z" fill="#F69245"/>
<path d="M346.47 26.7997C344.221 24.55 344.221 20.915 346.47 18.6764C348.709 16.4379 352.344 16.4379 354.594 18.6764C356.832 20.915 356.832 24.55 354.594 26.7997C352.344 29.0383 348.709 29.0383 346.47 26.7997Z" fill="#F69245"/>
<path d="M408.539 5.80159L400.421 -2.31641L392.303 5.80159L400.421 13.9199L408.539 5.80159Z" fill="#F43F69"/>
<path d="M330.279 4.75374L322.161 -3.36426L314.043 4.75374L322.161 12.872L330.279 4.75374Z" fill="#F69245"/>
<path d="M281.434 34.0449L276.896 29.5078L272.359 34.0449L276.896 38.582L281.434 34.0449Z" fill="#F69245"/>
<path d="M373.42 -0.823262L368.883 -5.36035L364.346 -0.823262L368.883 3.71383L373.42 -0.823262Z" fill="#F69245"/>
<path d="M285.025 2.80209C282.775 0.55241 282.775 -3.08253 285.025 -5.32115C287.264 -7.55962 290.899 -7.55962 293.148 -5.32115C295.387 -3.08253 295.387 0.55241 293.148 2.80209C290.91 5.04071 287.275 5.04071 285.025 2.80209Z" fill="#F43F69"/>
</svg>
