<svg width="217" height="123" viewBox="0 0 217 123" fill="none" xmlns="http://www.w3.org/2000/svg">
<rect width="217" height="122.41" fill="#E5E5E5"/>
<path d="M112.5 77.125H103.5C95.355 77.125 91.875 73.645 91.875 65.5V56.5C91.875 48.355 95.355 44.875 103.5 44.875H112.5C120.645 44.875 124.125 48.355 124.125 56.5V65.5C124.125 73.645 120.645 77.125 112.5 77.125ZM103.5 47.125C96.585 47.125 94.125 49.585 94.125 56.5V65.5C94.125 72.415 96.585 74.875 103.5 74.875H112.5C119.415 74.875 121.875 72.415 121.875 65.5V56.5C121.875 49.585 119.415 47.125 112.5 47.125H103.5Z" fill="#A3A3A3"/>
<path d="M103.5 59.125C101.22 59.125 99.375 57.28 99.375 55C99.375 52.72 101.22 50.875 103.5 50.875C105.78 50.875 107.625 52.72 107.625 55C107.625 57.28 105.78 59.125 103.5 59.125ZM103.5 53.125C102.465 53.125 101.625 53.965 101.625 55C101.625 56.035 102.465 56.875 103.5 56.875C104.535 56.875 105.375 56.035 105.375 55C105.375 53.965 104.535 53.125 103.5 53.125Z" fill="#A3A3A3"/>
<path d="M94.0051 72.5501C93.6451 72.5501 93.2851 72.3701 93.0751 72.0551C92.7301 71.5451 92.8651 70.8401 93.3901 70.4951L100.785 65.5301C102.405 64.4351 104.64 64.5701 106.11 65.8151L106.605 66.2501C107.355 66.8951 108.63 66.8951 109.365 66.2501L115.605 60.8951C117.195 59.5301 119.7 59.5301 121.305 60.8951L123.75 62.9951C124.215 63.4001 124.275 64.1051 123.87 64.5851C123.465 65.0501 122.76 65.1101 122.28 64.7051L119.835 62.6051C119.085 61.9601 117.81 61.9601 117.06 62.6051L110.82 67.9601C109.23 69.3251 106.725 69.3251 105.12 67.9601L104.625 67.5251C103.935 66.9401 102.795 66.8801 102.03 67.4051L94.6351 72.3701C94.4401 72.4901 94.2151 72.5501 94.0051 72.5501Z" fill="#A3A3A3"/>
</svg>
