<?xml version="1.0" encoding="utf-8"?>
<!-- Generator: Adobe Illustrator 25.0.1, SVG Export Plug-In . SVG Version: 6.00 Build 0)  -->
<svg version="1.1" id="Layer_1" xmlns="http://www.w3.org/2000/svg" xmlns:xlink="http://www.w3.org/1999/xlink" x="0px" y="0px"
	 viewBox="0 0 500 500" style="enable-background:new 0 0 500 500;" xml:space="preserve">
<style type="text/css">
	.st0{fill:#F5F6FA;}
	.st1{fill:#EBEBEB;}
	.st2{fill:#FAFAFA;}
	.st3{fill:#F5F5F5;}
	.st4{fill:#E6E6E6;}
	.st5{fill:#F0F0F0;}
	.st6{fill:#FFFFFF;}
	.st7{fill:#E0E0E0;}
	.st8{opacity:0.3;fill:#FFFFFF;enable-background:new    ;}
	.st9{opacity:0.2;fill:#FFFFFF;enable-background:new    ;}
	.st10{fill:#A0A4A8;}
	.st11{opacity:0.6;fill:#FFFFFF;enable-background:new    ;}
	.st12{opacity:0.4;fill:#FFFFFF;enable-background:new    ;}
	.st13{opacity:0.2;enable-background:new    ;}
	.st14{fill:#242525;}
	.st15{opacity:0.7;fill:#FFFFFF;enable-background:new    ;}
	.st16{opacity:0.5;fill:#FFFFFF;enable-background:new    ;}
	.st17{opacity:0.3;}
	.st18{fill:#9E9E9E;}
	.st19{opacity:0.1;enable-background:new    ;}
	.st20{opacity:0.8;}
</style>
<rect class="st0" width="500" height="500"/>
<g id="freepik--background-complete--inject-2">
	<rect x="322" y="395.1" class="st1" width="8.7" height="0.2"/>
	<rect x="224.3" y="234" class="st1" width="64.2" height="121"/>
	<polygon class="st1" points="236.7,218.4 236.7,234 241.7,234 271.2,234 276.2,234 276.2,218.4 	"/>
	<rect x="228.4" y="238.1" class="st2" width="8.2" height="8.2"/>
	<rect x="244.4" y="238.1" class="st2" width="8.2" height="8.2"/>
	<rect x="260.3" y="238.1" class="st2" width="8.2" height="8.2"/>
	<rect x="276.2" y="238.1" class="st2" width="8.2" height="8.2"/>
	<rect x="228.4" y="253" class="st2" width="8.2" height="8.2"/>
	<rect x="244.4" y="253" class="st2" width="8.2" height="8.2"/>
	<rect x="260.3" y="253" class="st2" width="8.2" height="8.2"/>
	<rect x="276.2" y="253" class="st2" width="8.2" height="8.2"/>
	<rect x="228.4" y="268" class="st2" width="8.2" height="8.2"/>
	<rect x="244.4" y="268" class="st2" width="8.2" height="8.2"/>
	<rect x="260.3" y="268" class="st2" width="8.2" height="8.2"/>
	<rect x="244.4" y="225.2" class="st2" width="8.2" height="8.2"/>
	<rect x="260.3" y="225.2" class="st2" width="8.2" height="8.2"/>
	<rect x="276.2" y="268" class="st2" width="8.2" height="8.2"/>
	<rect x="228.4" y="282.9" class="st2" width="8.2" height="8.2"/>
	<rect x="244.4" y="282.9" class="st2" width="8.2" height="8.2"/>
	<rect x="260.3" y="282.9" class="st2" width="8.2" height="8.2"/>
	<rect x="276.2" y="282.9" class="st2" width="8.2" height="8.2"/>
	<rect x="228.4" y="297.8" class="st2" width="8.2" height="8.2"/>
	<rect x="244.4" y="297.8" class="st2" width="8.2" height="8.2"/>
	<rect x="260.3" y="297.8" class="st2" width="8.2" height="8.2"/>
	<rect x="276.2" y="297.8" class="st2" width="8.2" height="8.2"/>
	<rect x="228.4" y="312.8" class="st2" width="8.2" height="8.2"/>
	<rect x="244.4" y="312.8" class="st2" width="8.2" height="8.2"/>
	<rect x="260.3" y="312.8" class="st2" width="8.2" height="8.2"/>
	<rect x="276.2" y="312.8" class="st2" width="8.2" height="8.2"/>
	<rect x="228.4" y="327.7" class="st2" width="8.2" height="8.2"/>
	<rect x="244.4" y="327.7" class="st2" width="8.2" height="8.2"/>
	<rect x="260.3" y="327.7" class="st2" width="8.2" height="8.2"/>
	<rect x="276.2" y="327.7" class="st2" width="8.2" height="8.2"/>
	<rect x="223" y="232.4" class="st3" width="66.9" height="1.7"/>
	<rect x="149.8" y="213" class="st4" width="76.3" height="142"/>
	<polygon class="st4" points="164.4,194.6 164.4,213 170.5,213 205.4,213 211.5,213 211.5,194.6 	"/>
	<rect x="148.2" y="211.1" class="st3" width="79.5" height="2"/>
	<rect x="162.5" y="192.6" class="st3" width="51" height="2"/>
	<rect x="133.9" y="213" class="st5" width="76.3" height="142"/>
	<polygon class="st5" points="148.5,194.6 148.5,213 154.6,213 189.5,213 195.6,213 195.6,194.6 	"/>
	<rect x="138.8" y="217.9" class="st6" width="9.8" height="9.8"/>
	<rect x="157.7" y="217.9" class="st6" width="9.8" height="9.8"/>
	<rect x="176.6" y="217.9" class="st6" width="9.8" height="9.8"/>
	<rect x="195.6" y="217.9" class="st6" width="9.8" height="9.8"/>
	<rect x="138.8" y="235.6" class="st6" width="9.8" height="9.8"/>
	<rect x="157.7" y="235.6" class="st6" width="9.8" height="9.8"/>
	<rect x="176.6" y="235.6" class="st6" width="9.8" height="9.8"/>
	<rect x="195.6" y="235.6" class="st6" width="9.8" height="9.8"/>
	<rect x="138.8" y="253.4" class="st6" width="9.8" height="9.8"/>
	<rect x="157.7" y="253.4" class="st6" width="9.8" height="9.8"/>
	<rect x="176.6" y="253.4" class="st6" width="9.8" height="9.8"/>
	<rect x="157.7" y="202.5" class="st6" width="9.8" height="9.8"/>
	<rect x="176.6" y="202.5" class="st6" width="9.8" height="9.8"/>
	<rect x="195.6" y="253.4" class="st6" width="9.8" height="9.8"/>
	<rect x="138.8" y="271.2" class="st6" width="9.8" height="9.8"/>
	<rect x="157.7" y="271.2" class="st6" width="9.8" height="9.8"/>
	<rect x="176.6" y="271.2" class="st6" width="9.8" height="9.8"/>
	<rect x="195.6" y="271.2" class="st6" width="9.8" height="9.8"/>
	<rect x="138.8" y="288.9" class="st6" width="9.8" height="9.8"/>
	<rect x="157.7" y="288.9" class="st6" width="9.8" height="9.8"/>
	<rect x="176.6" y="288.9" class="st6" width="9.8" height="9.8"/>
	<rect x="195.6" y="288.9" class="st6" width="9.8" height="9.8"/>
	<rect x="138.8" y="306.7" class="st6" width="9.8" height="9.8"/>
	<rect x="157.7" y="306.7" class="st6" width="9.8" height="9.8"/>
	<rect x="176.6" y="306.7" class="st6" width="9.8" height="9.8"/>
	<rect x="195.6" y="306.7" class="st6" width="9.8" height="9.8"/>
	<rect x="138.8" y="324.4" class="st6" width="9.8" height="9.8"/>
	<rect x="157.7" y="324.4" class="st6" width="9.8" height="9.8"/>
	<rect x="176.6" y="324.4" class="st6" width="9.8" height="9.8"/>
	<rect x="195.6" y="324.4" class="st6" width="9.8" height="9.8"/>
	<rect x="132.3" y="211.1" class="st3" width="79.5" height="2"/>
	<rect x="146.5" y="192.6" class="st3" width="51" height="2"/>
	<polygon class="st3" points="95.4,277.3 52.7,277.3 52.7,354.4 120.9,354.4 120.9,277.3 120.9,247.6 	"/>
	<rect x="120.9" y="247.6" class="st4" width="12.7" height="106.9"/>
	<rect x="55.9" y="290.9" class="st7" width="10.2" height="10.1"/>
	<rect x="57" y="290.9" class="st8" width="9" height="10.1"/>
	<rect x="55.9" y="308" class="st7" width="10.2" height="10.1"/>
	<rect x="57" y="308" class="st8" width="9" height="10.1"/>
	<rect x="55.9" y="325.1" class="st7" width="10.2" height="10.1"/>
	<rect x="57" y="325.1" class="st8" width="9" height="10.1"/>
	<rect x="57" y="325.1" class="st9" width="10.2" height="10.1"/>
	<rect x="73" y="290.9" class="st7" width="10.2" height="10.1"/>
	<rect x="74.1" y="290.9" class="st8" width="9" height="10.1"/>
	<rect x="73" y="308" class="st7" width="10.2" height="10.1"/>
	<rect x="74.1" y="308" class="st8" width="9" height="10.1"/>
	<rect x="73" y="325.1" class="st7" width="10.2" height="10.1"/>
	<rect x="74.1" y="325.1" class="st8" width="9" height="10.1"/>
	<rect x="74.1" y="325.1" class="st9" width="10.2" height="10.1"/>
	<rect x="90.1" y="290.9" class="st7" width="10.2" height="10.1"/>
	<rect x="91.2" y="290.9" class="st8" width="9" height="10.1"/>
	<rect x="90.1" y="308" class="st7" width="10.2" height="10.1"/>
	<rect x="91.2" y="308" class="st8" width="9" height="10.1"/>
	<rect x="90.1" y="325.1" class="st7" width="10.2" height="10.1"/>
	<rect x="91.2" y="325.1" class="st8" width="9" height="10.1"/>
	<rect x="91.2" y="325.1" class="st9" width="10.2" height="10.1"/>
	<rect x="107.2" y="290.9" class="st7" width="10.2" height="10.1"/>
	<rect x="108.3" y="290.9" class="st8" width="9" height="10.1"/>
	<rect x="107.2" y="308" class="st7" width="10.2" height="10.1"/>
	<rect x="108.3" y="308" class="st8" width="9" height="10.1"/>
	<rect x="107.2" y="325.1" class="st7" width="10.2" height="10.1"/>
	<rect x="108.3" y="325.1" class="st8" width="9" height="10.1"/>
	<rect x="108.4" y="325.1" class="st9" width="10.2" height="10.1"/>
	<path class="st5" d="M343.4,110.5l26.6-0.3c0.9,0,1.9,0.3,2.7,0.8l0,0c8.4,8,18.1,3.4,22.4,0.6c1.6-1.1,3.5-1.7,5.5-1.7l29.7-0.3
		c11.1-0.1,13.6-15.8,3.1-19.3L433,90c11.5-9.8-14.2-30-41.6-1.3c2.1-9.5-22.5-5.8-29.9,7.2C358.6,87.5,335.3,102.4,343.4,110.5z"/>
	<path class="st5" d="M191.2,149.8h44.2c5.7,0,7-7.9,1.7-9.8l-0.2-0.1c5.9-4.9-7.1-15.3-21.2-0.9c1.1-4.8-11.4-3.1-15.3,3.5
		C199.1,138.2,187.1,145.7,191.2,149.8z"/>
	<path class="st5" d="M67.4,111.8h75.1c9.6,0,11.9-13.5,2.9-16.6l-0.4-0.1c10.1-8.4-12-26-36-1.6c1.9-8.2-19.4-5.2-25.9,5.9
		C80.8,92.1,60.5,104.8,67.4,111.8z"/>
</g>
<g id="freepik--Buildings--inject-2">
	<rect x="210.6" y="264.4" class="st10" width="63.7" height="97.9"/>
	<rect x="210.6" y="264.4" class="st11" width="52.9" height="97.9"/>
	<rect x="263.6" y="264.4" class="st8" width="10.8" height="97.9"/>
	<rect x="215.2" y="269.4" class="st10" width="11.6" height="11.5"/>
	<rect x="231.3" y="269.4" class="st10" width="11.6" height="11.5"/>
	<rect x="247.5" y="269.4" class="st10" width="11.6" height="11.5"/>
	<rect x="215.2" y="284.4" class="st10" width="11.6" height="11.5"/>
	<rect x="231.3" y="284.4" class="st10" width="11.6" height="11.5"/>
	<rect x="247.5" y="284.4" class="st10" width="11.6" height="11.5"/>
	<rect x="215.2" y="299.5" class="st10" width="11.6" height="11.5"/>
	<rect x="231.3" y="299.5" class="st10" width="11.6" height="11.5"/>
	<rect x="247.5" y="299.5" class="st10" width="11.6" height="11.5"/>
	<rect x="215.2" y="314.5" class="st10" width="11.6" height="11.5"/>
	<rect x="231.3" y="314.5" class="st10" width="11.6" height="11.5"/>
	<rect x="247.5" y="314.5" class="st10" width="11.6" height="11.5"/>
	<rect x="215.2" y="329.6" class="st10" width="11.6" height="11.5"/>
	<rect x="231.3" y="329.6" class="st10" width="11.6" height="11.5"/>
	<rect x="247.5" y="329.6" class="st10" width="11.6" height="11.5"/>
	<rect x="215.2" y="348.6" class="st10" width="11.6" height="13.6"/>
	<rect x="231.3" y="344.6" class="st10" width="11.6" height="17.6"/>
	<rect x="247.5" y="348.6" class="st10" width="11.6" height="13.6"/>
	<rect x="216.1" y="269.4" class="st12" width="10.6" height="11.5"/>
	<rect x="232.3" y="269.4" class="st12" width="10.6" height="11.5"/>
	<rect x="248.4" y="269.4" class="st12" width="10.6" height="11.5"/>
	<rect x="216.1" y="284.4" class="st12" width="10.6" height="11.5"/>
	<rect x="232.3" y="284.4" class="st12" width="10.6" height="11.5"/>
	<rect x="248.4" y="284.4" class="st12" width="10.6" height="11.5"/>
	<rect x="216.1" y="299.5" class="st12" width="10.6" height="11.5"/>
	<rect x="232.3" y="299.5" class="st12" width="10.6" height="11.5"/>
	<rect x="248.4" y="299.5" class="st12" width="10.6" height="11.5"/>
	<rect x="216.1" y="314.5" class="st12" width="10.6" height="11.5"/>
	<rect x="232.3" y="314.5" class="st12" width="10.6" height="11.5"/>
	<rect x="248.4" y="314.5" class="st12" width="10.6" height="11.5"/>
	<rect x="216.1" y="329.6" class="st12" width="10.6" height="11.5"/>
	<rect x="232.3" y="329.6" class="st12" width="10.6" height="11.5"/>
	<rect x="248.4" y="329.6" class="st12" width="10.6" height="11.5"/>
	<rect x="216.1" y="348.6" class="st12" width="10.6" height="13.6"/>
	<rect x="232.3" y="344.6" class="st12" width="10.6" height="17.6"/>
	<rect x="248.4" y="348.6" class="st12" width="10.6" height="13.6"/>
	<polygon class="st10" points="206.8,260.2 285.2,260.2 282.9,265.1 209.1,265.1 	"/>
	<polygon class="st13" points="264.7,260.2 285.2,260.2 282.9,265.1 263.6,265.1 	"/>
	<rect x="376.5" y="205.9" class="st10" width="64.3" height="156.4"/>
	<rect x="376.5" y="205.9" class="st12" width="48.9" height="156.4"/>
	<rect x="373.5" y="201.2" class="st10" width="70.3" height="5"/>
	<rect x="425.5" y="201.2" class="st13" width="18.4" height="5"/>
	<rect x="425.5" y="206.2" class="st8" width="15.4" height="156.1"/>
	<rect x="383.1" y="212.1" class="st10" width="8.3" height="12.6"/>
	<rect x="383.1" y="212.9" class="st9" width="8.3" height="11.8"/>
	<rect x="383.1" y="212.1" class="st10" width="1.2" height="12.6"/>
	<rect x="396.2" y="212.1" class="st10" width="8.3" height="12.6"/>
	<rect x="396.2" y="212.9" class="st9" width="8.3" height="11.8"/>
	<rect x="396.2" y="212.1" class="st10" width="1.2" height="12.6"/>
	<rect x="409.3" y="212.1" class="st10" width="8.3" height="12.6"/>
	<rect x="409.3" y="212.9" class="st9" width="8.3" height="11.8"/>
	<rect x="409.3" y="212.1" class="st10" width="1.2" height="12.6"/>
	<rect x="383.1" y="231.1" class="st10" width="8.3" height="12.6"/>
	<rect x="383.1" y="231.9" class="st9" width="8.3" height="11.8"/>
	<rect x="383.1" y="231.1" class="st10" width="1.2" height="12.6"/>
	<rect x="396.2" y="231.1" class="st10" width="8.3" height="12.6"/>
	<rect x="396.2" y="231.9" class="st9" width="8.3" height="11.8"/>
	<rect x="396.2" y="231.1" class="st10" width="1.2" height="12.6"/>
	<rect x="409.3" y="231.1" class="st10" width="8.3" height="12.6"/>
	<rect x="409.3" y="231.9" class="st9" width="8.3" height="11.8"/>
	<rect x="409.3" y="231.1" class="st10" width="1.2" height="12.6"/>
	<rect x="383.1" y="250" class="st10" width="8.3" height="12.6"/>
	<rect x="383.1" y="250.9" class="st9" width="8.3" height="11.7"/>
	<rect x="383.1" y="250" class="st10" width="1.2" height="12.6"/>
	<rect x="396.2" y="250" class="st10" width="8.3" height="12.6"/>
	<rect x="396.2" y="250.9" class="st9" width="8.3" height="11.7"/>
	<rect x="396.2" y="250" class="st10" width="1.2" height="12.6"/>
	<rect x="409.3" y="250" class="st10" width="8.3" height="12.6"/>
	<rect x="409.3" y="250.9" class="st9" width="8.3" height="11.7"/>
	<rect x="409.3" y="250" class="st10" width="1.2" height="12.6"/>
	<rect x="383.1" y="269" class="st10" width="8.3" height="12.6"/>
	<rect x="383.1" y="269.8" class="st9" width="8.3" height="11.8"/>
	<rect x="383.1" y="269" class="st10" width="1.2" height="12.6"/>
	<rect x="396.2" y="269" class="st10" width="8.3" height="12.6"/>
	<rect x="396.2" y="269.8" class="st9" width="8.3" height="11.8"/>
	<rect x="396.2" y="269" class="st10" width="1.2" height="12.6"/>
	<rect x="409.3" y="269" class="st10" width="8.3" height="12.6"/>
	<rect x="409.3" y="269.8" class="st9" width="8.3" height="11.8"/>
	<rect x="409.3" y="269" class="st10" width="1.2" height="12.6"/>
	<rect x="383.1" y="287.9" class="st10" width="8.3" height="12.6"/>
	<rect x="383.1" y="288.8" class="st9" width="8.3" height="11.8"/>
	<rect x="383.1" y="287.9" class="st10" width="1.2" height="12.6"/>
	<rect x="396.2" y="287.9" class="st10" width="8.3" height="12.6"/>
	<rect x="396.2" y="288.8" class="st9" width="8.3" height="11.8"/>
	<rect x="396.2" y="287.9" class="st10" width="1.2" height="12.6"/>
	<rect x="409.3" y="287.9" class="st10" width="8.3" height="12.6"/>
	<rect x="409.3" y="288.8" class="st9" width="8.3" height="11.8"/>
	<rect x="409.3" y="287.9" class="st10" width="1.2" height="12.6"/>
	<rect x="383.1" y="306.9" class="st10" width="8.3" height="12.6"/>
	<rect x="383.1" y="307.7" class="st9" width="8.3" height="11.8"/>
	<rect x="383.1" y="306.9" class="st10" width="1.2" height="12.6"/>
	<rect x="396.2" y="306.9" class="st10" width="8.3" height="12.6"/>
	<rect x="396.2" y="307.7" class="st9" width="8.3" height="11.8"/>
	<rect x="396.2" y="306.9" class="st10" width="1.2" height="12.6"/>
	<rect x="409.3" y="306.9" class="st10" width="8.3" height="12.6"/>
	<rect x="409.3" y="307.7" class="st9" width="8.3" height="11.8"/>
	<rect x="409.3" y="306.9" class="st10" width="1.2" height="12.6"/>
	<rect x="383.1" y="325.9" class="st10" width="8.3" height="12.6"/>
	<rect x="383.1" y="326.7" class="st9" width="8.3" height="11.8"/>
	<rect x="383.1" y="325.9" class="st10" width="1.2" height="12.6"/>
	<rect x="396.2" y="325.9" class="st10" width="8.3" height="12.6"/>
	<rect x="396.2" y="326.7" class="st9" width="8.3" height="11.8"/>
	<rect x="396.2" y="325.9" class="st10" width="1.2" height="12.6"/>
	<rect x="409.3" y="325.9" class="st10" width="8.3" height="12.6"/>
	<rect x="409.3" y="326.7" class="st9" width="8.3" height="11.8"/>
	<rect x="409.3" y="325.9" class="st10" width="1.2" height="12.6"/>
	<rect x="383.1" y="344.8" class="st10" width="8.3" height="12.6"/>
	<rect x="383.1" y="345.6" class="st9" width="8.3" height="11.8"/>
	<rect x="383.1" y="344.8" class="st10" width="1.2" height="12.6"/>
	<rect x="396.2" y="344.8" class="st10" width="8.3" height="12.6"/>
	<rect x="396.2" y="345.6" class="st9" width="8.3" height="11.8"/>
	<rect x="396.2" y="344.8" class="st10" width="1.2" height="12.6"/>
	<rect x="409.3" y="344.8" class="st10" width="8.3" height="12.6"/>
	<rect x="409.3" y="345.6" class="st9" width="8.3" height="11.8"/>
	<rect x="409.3" y="344.8" class="st10" width="1.2" height="12.6"/>
	<rect x="303.9" y="117.2" class="st14" width="1.4" height="30.8"/>
	<rect x="335" y="117.2" class="st14" width="1.4" height="30.8"/>
	<rect x="315" y="131.2" class="st10" width="48.3" height="25.5"/>
	<rect x="315" y="131.2" class="st15" width="48.3" height="25.5"/>
	<rect x="287" y="131.2" class="st10" width="48.3" height="25.5"/>
	<rect x="287" y="131.2" class="st12" width="48.3" height="25.5"/>
	<rect x="280" y="170.4" class="st16" width="2.4" height="10"/>
	<rect x="280" y="196.2" class="st16" width="2.4" height="10"/>
	<rect x="280" y="213.7" class="st16" width="2.4" height="10"/>
	<rect x="280" y="231.2" class="st16" width="2.4" height="10"/>
	<rect x="280" y="248.7" class="st16" width="2.4" height="10"/>
	<rect x="280" y="266.2" class="st16" width="2.4" height="10"/>
	<rect x="280" y="285.4" class="st16" width="2.4" height="10"/>
	<rect x="280" y="304.7" class="st16" width="2.4" height="10"/>
	<rect x="280" y="324" class="st16" width="2.4" height="10"/>
	<rect x="280" y="343.2" class="st16" width="2.4" height="10"/>
	<rect x="301.4" y="157.1" class="st10" width="75.5" height="205.2"/>
	<rect x="273.4" y="157.1" class="st10" width="75.5" height="205.2"/>
	<rect x="348.9" y="159.9" class="st8" width="27.9" height="202.4"/>
	<rect x="273.4" y="157.1" class="st16" width="75.5" height="205.2"/>
	<rect x="332.5" y="166.1" class="st10" width="9.3" height="191.3"/>
	<rect x="314.7" y="166.1" class="st10" width="9.3" height="191.3"/>
	<rect x="296.8" y="166.1" class="st10" width="9.3" height="191.3"/>
	<rect x="279" y="166.1" class="st10" width="9.3" height="191.3"/>
	<rect x="332.5" y="168.5" class="st9" width="9.3" height="188.9"/>
	<rect x="314.7" y="168.5" class="st9" width="9.3" height="188.9"/>
	<rect x="296.8" y="168.5" class="st9" width="9.3" height="188.9"/>
	<rect x="279" y="168.5" class="st9" width="9.3" height="188.9"/>
	<rect x="369.8" y="166.1" class="st10" width="3.9" height="191.3"/>
	<rect x="362.3" y="166.1" class="st10" width="3.9" height="191.3"/>
	<rect x="354.8" y="166.1" class="st10" width="3.9" height="191.3"/>
	<g class="st17">
		<rect x="369.8" y="168.5" class="st12" width="3.9" height="188.9"/>
		<rect x="362.3" y="168.5" class="st12" width="3.9" height="188.9"/>
		<rect x="354.8" y="168.5" class="st12" width="3.9" height="188.9"/>
	</g>
	<rect x="348.9" y="151.3" class="st10" width="26.3" height="3.9"/>
	<rect x="273.4" y="150.3" class="st18" width="101.8" height="4.8"/>
	<rect x="271.3" y="155.1" class="st10" width="107.5" height="4.8"/>
	<rect x="271.3" y="146.5" class="st10" width="107.5" height="4.8"/>
	<rect x="271.3" y="155.1" class="st19" width="107.5" height="4.8"/>
	<rect x="271.3" y="146.5" class="st19" width="107.5" height="4.8"/>
	<rect x="348.9" y="155.1" class="st13" width="29.9" height="4.8"/>
	<rect x="348.9" y="146.5" class="st13" width="29.9" height="4.8"/>
	<rect x="305.5" y="131.2" class="st8" width="11.5" height="11.5"/>
</g>
<g id="freepik--Tree--inject-2">
	<path class="st10" d="M189,223.7c-9.8-11.6-22.1-15.5-31.1-11.2c-2.7,1.3-5.9,0.6-7.8-1.6c-10.9-11.8-28.6-13.2-35.9-2.1
		c-0.8,1.3-1.5,2.6-2.1,4c-0.9,2.3-2.4,4.2-4.3,5.7c-1.3,1-2.4,2.2-3.3,3.6c-2.4,3.9-3.5,8.5-3.2,13.1c0.1,1.4-0.6,2.7-1.8,3.4
		c-2,1.1-3.8,2.7-5,4.6c-5.9,9-3.3,25.1,5.8,35.9c8.2,9.6,18.8,11.8,25.2,5.8c0.5-0.5,1.4-0.5,1.9,0c4.6,4.1,10,4.2,12.8-0.3l0,0
		c0.4-0.7,1.2-0.9,1.9-0.6c0.1,0.1,0.2,0.2,0.3,0.3c4.8,4.8,10.5,5,13.4,0.3c0.5-0.9,0.9-1.8,1.2-2.8c0.2-0.8,0.9-1.3,1.7-1.2
		c0.1,0,0.1,0,0.2,0.1c3.1,1.2,6.2,0.7,8.2-1.8c0.4-0.5,1.2-0.7,1.8-0.3c10.7,6.4,21.9,5.1,28.2-4.4
		C205.6,261.6,202,238.9,189,223.7z"/>
	<path class="st11" d="M189,223.7c-9.8-11.6-22.1-15.5-31.1-11.2c-2.7,1.3-5.9,0.6-7.8-1.6c-10.9-11.8-28.6-13.2-35.9-2.1
		c-0.8,1.3-1.5,2.6-2.1,4c-0.9,2.3-2.4,4.2-4.3,5.7c-1.3,1-2.4,2.2-3.3,3.6c-2.4,3.9-3.5,8.5-3.2,13.1c0.1,1.4-0.6,2.7-1.8,3.4
		c-2,1.1-3.8,2.7-5,4.6c-5.9,9-3.3,25.1,5.8,35.9c8.2,9.6,18.8,11.8,25.2,5.8c0.5-0.5,1.4-0.5,1.9,0c4.6,4.1,10,4.2,12.8-0.3l0,0
		c0.4-0.7,1.2-0.9,1.9-0.6c0.1,0.1,0.2,0.2,0.3,0.3c4.8,4.8,10.5,5,13.4,0.3c0.5-0.9,0.9-1.8,1.2-2.8c0.2-0.8,0.9-1.3,1.7-1.2
		c0.1,0,0.1,0,0.2,0.1c3.1,1.2,6.2,0.7,8.2-1.8c0.4-0.5,1.2-0.7,1.8-0.3c10.7,6.4,21.9,5.1,28.2-4.4
		C205.6,261.6,202,238.9,189,223.7z"/>
	<path class="st10" d="M123.8,290.2l9.3,9.1c-0.7,12.8-1.4,42.4-1.4,42.4l-3.3,20.7l29.1,0.3c0,0-1.3-17.5-1.3-18.4
		s-5.6-34.4-5.6-34.4l-2-18.7l15-4.8l2.7-8.3l11-6.6l5.4-8.7l-2.1-0.5l-6,8.1l-6.9,1.6l3-7.4h-3.3l-8.3,17.2l-10.7,2.3l1.4-24.1
		c-8.5,4.2-11.2-2.8-11.2-2.8s-3.5,32.5-4.8,36.2l-5.5-2.9l-6-9.9h-2.5L123.8,290.2z"/>
	<rect x="79.7" y="330.6" class="st10" width="1.5" height="18.9"/>
	<rect x="79.7" y="330.6" class="st13" width="1.5" height="18.9"/>
	<rect x="110.2" y="330.6" class="st10" width="1.5" height="18.9"/>
	<rect x="110.2" y="330.6" class="st13" width="1.5" height="18.9"/>
	<rect x="78.1" y="347.6" class="st10" width="35.2" height="2.3"/>
	<rect x="78.1" y="347.6" class="st9" width="35.2" height="2.3"/>
	<rect x="79" y="349.9" class="st10" width="1.5" height="12.8"/>
	<rect x="79" y="349.9" class="st13" width="1.5" height="12.8"/>
	<rect x="111.1" y="349.9" class="st10" width="1.5" height="12.8"/>
	<rect x="111.1" y="349.9" class="st13" width="1.5" height="12.8"/>
	<rect x="78.1" y="331.4" class="st10" width="35.2" height="11.1"/>
	<rect x="78.1" y="331.4" class="st9" width="35.2" height="11.1"/>
	<rect x="78.1" y="349.5" class="st10" width="35.1" height="3.6"/>
	<rect x="78.1" y="349.5" class="st19" width="35.1" height="3.6"/>
	<rect x="76.7" y="344.4" class="st10" width="1.5" height="18.2"/>
	<rect x="76.2" y="342.5" class="st10" width="2.6" height="2.6"/>
	<rect x="76.2" y="342.5" class="st9" width="2.6" height="2.6"/>
	<rect x="78.7" y="342.5" class="st10" width="2" height="2.6"/>
	<rect x="113.3" y="344.4" class="st10" width="1.5" height="18.2"/>
	<rect x="112.7" y="342.5" class="st10" width="2.6" height="2.6"/>
	<rect x="112.7" y="342.5" class="st9" width="2.6" height="2.6"/>
	<rect x="110.7" y="342.5" class="st10" width="2" height="2.6"/>
	<rect x="78.7" y="342.5" class="st19" width="2" height="2.6"/>
	<rect x="110.7" y="342.5" class="st19" width="2" height="2.6"/>
</g>
<g id="freepik--Streetlight--inject-2">
	<rect x="76.8" y="202.9" class="st14" width="1.3" height="5.6"/>
	<path class="st10" d="M86.8,200.6c-8,1-20.1,3.7-29.6,8.7v1.9c9.2-4.9,19.3-8,29.6-9L86.8,200.6z"/>
	<path class="st10" d="M100.7,203.4c-0.5-0.4-1.1-0.8-1.7-1.1c-1.4-0.6-9.7,0.6-12.5,1.1v-1.2l-0.1-1.6c1.9-0.2,3.7-0.3,5.1-0.4
		c2.4-0.1,4.2-0.2,5.5-0.2C99,199.9,100.6,201.4,100.7,203.4C100.7,203.4,100.7,203.4,100.7,203.4z"/>
	<path class="st14" d="M57.2,222.6c-0.6,0-1-0.4-1-1c0-0.5,0-1.6,5.3-6.4c0.7-0.7,1.5-1.3,2.4-1.9c4.9-3.1,10.4-5.2,16.1-6.1
		c0.6-0.1,1.1,0.3,1.1,0.9c0.1,0.6-0.3,1.1-0.9,1.1c-0.1,0-8.6,1.2-15.2,5.8c-0.8,0.5-1.5,1.1-2.2,1.8c-3.5,3.1-4.6,4.6-4.7,5
		C58.2,222.2,57.7,222.6,57.2,222.6z"/>
	<path class="st14" d="M55.9,209h2c0.1,0,0.2,0.1,0.2,0.2l0,0v153.5l0,0h-2.5l0,0V209.2C55.7,209.1,55.8,209,55.9,209
		C55.9,209,55.9,209,55.9,209z"/>
	<path class="st10" d="M100.7,203.5L100.7,203.5l-11.6,1.2l-2.6-1.1v-0.2c2.8-0.4,11.1-1.7,12.5-1.1c0.6,0.3,1.2,0.6,1.7,1.1
		C100.7,203.4,100.7,203.5,100.7,203.5z"/>
	<path class="st11" d="M100.7,203.5L100.7,203.5l-11.6,1.2l-2.6-1.1v-0.2c2.8-0.4,11.1-1.7,12.5-1.1c0.6,0.3,1.2,0.6,1.7,1.1
		C100.7,203.4,100.7,203.5,100.7,203.5z"/>
</g>
<g id="freepik--Leaves--inject-2">
	<path class="st14" d="M201.6,413.6h-0.3c-2,1.7-5.3,2.8-8.4,3.2c-3.5,0.6-7,0.5-10.5,1.1c-2.1,0.3-4.2,0.9-6.1,1.7
		c-0.5,0.4-0.9,0.7-1.3,1.2c-0.7,0.8-0.8,1.6,0.8,2C185.5,425.8,196,422,201.6,413.6z"/>
	<path class="st14" d="M177.4,422.1l-5.3,1.8c-1.4,0.2-1.6-0.6-0.6-1C173.4,422.8,177,421.5,177.4,422.1z"/>
	<g class="st20">
		<path class="st6" d="M201.6,413.6h-0.3c-2,1.7-5.3,2.8-8.4,3.2c-3.5,0.6-7,0.5-10.5,1.1c-2.1,0.3-4.2,0.9-6.1,1.7
			c-0.5,0.4-0.9,0.7-1.3,1.2c-0.7,0.8-0.8,1.6,0.8,2C185.5,425.8,196,422,201.6,413.6z"/>
		<path class="st6" d="M177.4,422.1l-5.3,1.8c-1.4,0.2-1.6-0.6-0.6-1C173.4,422.8,177,421.5,177.4,422.1z"/>
	</g>
	<path class="st10" d="M199.6,409.5c0,0.2-0.1,0.5-0.2,0.7s-0.1,0.3-0.1,0.4c-0.1,0.3-0.2,0.6-0.4,1l-0.2,0.5
		c-0.1,0.2-0.2,0.4-0.3,0.6s-0.2,0.5-0.3,0.7s-0.2,0.5-0.4,0.7s-0.2,0.4-0.4,0.7s-0.3,0.5-0.5,0.8l-0.5,0.7
		c-0.2,0.2-0.3,0.5-0.5,0.7s-0.4,0.5-0.6,0.7s-0.4,0.5-0.6,0.7s-0.4,0.5-0.6,0.7s-0.4,0.5-0.7,0.7c-0.2-0.2-0.4-0.3-0.7-0.4
		c-1.2-0.6-2.6-0.2-3.2,1c-0.2,0.7-0.1,1.4,0.3,1.9c-0.4,0.2-0.9,0.4-1.4,0.6l-0.4,0.1l-0.4,0.1c-0.2,0.1-0.4,0.1-0.6,0.2
		c-0.2,0-0.3,0.1-0.5,0.1c-0.2,0.1-0.5,0.1-0.7,0.1l-0.8,0.1c-0.3,0-0.6,0-0.9,0c-1.1,0-2.3-0.1-3.4-0.4c-0.6-0.1-1.2-0.3-1.8-0.5
		c-1.1-0.4-2.2-0.9-3.3-1.5c-0.4-0.2-0.9-0.5-1.4-0.8c-1.3-0.6-1.9-2.1-1.3-3.3c0-0.1,0.1-0.2,0.2-0.3c0.3-0.6,0.7-1.2,1.1-1.8
		c1.9-1.1,3.9-1.7,6.1-1.8c3.6-0.3,7.2,0.4,10.8,0.1c3.1-0.3,6.4-1.5,8.2-4L199.6,409.5z"/>
	<path class="st10" d="M175.8,419.7l-5.2,2.1c-1.5,0.1-1.7-1.4-0.8-1.8C171.8,420.2,175.3,418.6,175.8,419.7z"/>
	<path class="st9" d="M199.6,409.5c0,0.2-0.1,0.5-0.2,0.7s-0.1,0.3-0.1,0.4c-0.1,0.3-0.2,0.6-0.4,1l-0.2,0.5
		c-0.1,0.2-0.2,0.4-0.3,0.6s-0.2,0.5-0.3,0.7s-0.2,0.5-0.4,0.7s-0.2,0.4-0.4,0.7s-0.3,0.5-0.5,0.8l-0.5,0.7
		c-0.2,0.2-0.3,0.5-0.5,0.7s-0.4,0.5-0.6,0.7s-0.4,0.5-0.6,0.7s-0.4,0.5-0.6,0.7s-0.4,0.5-0.7,0.7c-0.2-0.2-0.4-0.3-0.7-0.4
		c-1.2-0.6-2.6-0.2-3.2,1c-0.2,0.7-0.1,1.4,0.3,1.9c-0.4,0.2-0.9,0.4-1.4,0.6l-0.4,0.1l-0.4,0.1c-0.2,0.1-0.4,0.1-0.6,0.2
		c-0.2,0-0.3,0.1-0.5,0.1c-0.2,0.1-0.5,0.1-0.7,0.1l-0.8,0.1c-0.3,0-0.6,0-0.9,0c-1.1,0-2.3-0.1-3.4-0.4c-0.6-0.1-1.2-0.3-1.8-0.5
		c-1.1-0.4-2.2-0.9-3.3-1.5c-0.4-0.2-0.9-0.5-1.4-0.8c-1.3-0.6-1.9-2.1-1.3-3.3c0-0.1,0.1-0.2,0.2-0.3c0.3-0.6,0.7-1.2,1.1-1.8
		c1.9-1.1,3.9-1.7,6.1-1.8c3.6-0.3,7.2,0.4,10.8,0.1c3.1-0.3,6.4-1.5,8.2-4L199.6,409.5z"/>
	<path class="st14" d="M300,413.8l0.2-0.1c1.8,0.7,3.8,0.9,5.7,0.6c2.3-0.2,4.4-0.8,6.6-1.1c1.3-0.2,2.7-0.1,4,0.1
		c0.3,0.1,0.7,0.3,1,0.5c0.6,0.4,0.8,0.9-0.1,1.4C311.9,418.6,304.9,418.1,300,413.8z"/>
	<path class="st14" d="M316.3,415.1l3.6,0.2c0.9-0.1,0.9-0.6,0.2-0.7C318.8,414.9,316.4,414.6,316.3,415.1z"/>
	<g class="st20">
		<path class="st6" d="M300,413.8l0.2-0.1c1.8,0.7,3.8,0.9,5.7,0.6c2.3-0.2,4.4-0.8,6.6-1.1c1.3-0.2,2.7-0.1,4,0.1
			c0.3,0.1,0.7,0.3,1,0.5c0.6,0.4,0.8,0.9-0.1,1.4C311.9,418.6,304.9,418.1,300,413.8z"/>
		<path class="st6" d="M316.3,415.1l3.6,0.2c0.9-0.1,0.9-0.6,0.2-0.7C318.8,414.9,316.4,414.6,316.3,415.1z"/>
	</g>
	<path class="st10" d="M301,409.8l0.2-0.1c1.5,1.4,3.5,2,5.5,1.8c2.3-0.1,4.5-0.9,6.8-1c1.4-0.1,2.7,0.1,4,0.6
		c0.3,0.3,0.6,0.6,0.9,1c0.6,0.7,0.4,1.7-0.3,2.3c0,0-0.1,0.1-0.2,0.1C308.5,422.4,302.1,412.5,301,409.8z"/>
	<path class="st10" d="M316.9,414.1l3.5,0.9c0.9-0.1,1-1,0.3-1.2C319.5,414.1,317.1,413.4,316.9,414.1z"/>
	<path class="st9" d="M301,409.8l0.2-0.1c1.5,1.4,3.5,2,5.5,1.8c2.3-0.1,4.5-0.9,6.8-1c1.4-0.1,2.7,0.1,4,0.6c0.3,0.3,0.6,0.6,0.9,1
		c0.6,0.7,0.4,1.7-0.3,2.3c0,0-0.1,0.1-0.2,0.1C308.5,422.4,302.1,412.5,301,409.8z"/>
	<path class="st14" d="M240.9,411.6l-0.2-0.1c-1.8,0.6-3.8,0.8-5.7,0.4c-2.2-0.3-4.3-1-6.6-1.3c-1.3-0.2-2.7-0.2-4-0.1
		c-0.3,0.1-0.7,0.3-1,0.5c-0.6,0.3-0.8,0.8,0.1,1.4C228.9,416,235.9,415.7,240.9,411.6z"/>
	<path class="st14" d="M224.7,412.3l-3.6,0.1c-0.9-0.1-0.8-0.7-0.1-0.7C222.1,412,224.5,411.9,224.7,412.3z"/>
	<g class="st20">
		<path class="st6" d="M240.9,411.6l-0.2-0.1c-1.8,0.6-3.8,0.8-5.7,0.4c-2.2-0.3-4.3-1-6.6-1.3c-1.3-0.2-2.7-0.2-4-0.1
			c-0.3,0.1-0.7,0.3-1,0.5c-0.6,0.3-0.8,0.8,0.1,1.4C228.9,416,235.9,415.7,240.9,411.6z"/>
		<path class="st6" d="M224.7,412.3l-3.6,0.1c-0.9-0.1-0.8-0.7-0.1-0.7C222.1,412,224.5,411.9,224.7,412.3z"/>
	</g>
	<path class="st10" d="M240.5,408.8c0,0-0.1-0.1-0.2-0.1c-1.7,1.1-3.8,1.4-5.7,0.9c-2.2-0.5-4.3-1.5-6.5-2c-1.3-0.3-2.7-0.3-4,0
		c-0.4,0.3-0.7,0.5-1,0.9c-0.7,0.6-0.7,1.6-0.1,2.3c0,0,0.1,0.1,0.1,0.1C231.2,420,239,411.3,240.5,408.8z"/>
	<path class="st10" d="M224.2,410.5l-3.6,0.3c-0.9-0.2-0.8-1.1-0.1-1.2C221.6,410.1,224.1,409.8,224.2,410.5z"/>
	<path class="st9" d="M240.5,408.8c0,0-0.1-0.1-0.2-0.1c-1.7,1.1-3.8,1.4-5.7,0.9c-2.2-0.5-4.3-1.5-6.5-2c-1.3-0.3-2.7-0.3-4,0
		c-0.4,0.3-0.7,0.5-1,0.9c-0.7,0.6-0.7,1.6-0.1,2.3c0,0,0.1,0.1,0.1,0.1C231.2,420,239,411.3,240.5,408.8z"/>
	<path class="st14" d="M354.1,421.2h0.1c1.3-0.7,2.8-1,4.3-1c1.8,0,3.5,0.2,5.2,0.2c1.1,0,2.1-0.1,3.1-0.4c0.2-0.1,0.5-0.3,0.7-0.5
		c0.4-0.3,0.5-0.7-0.2-1.1C362.8,416.3,357.4,417.4,354.1,421.2z"/>
	<path class="st14" d="M366.6,418.6l2.7-0.5c0.7,0,0.7,0.4,0.2,0.5C368.6,418.5,366.7,418.9,366.6,418.6z"/>
	<g class="st20">
		<path class="st6" d="M354.1,421.2h0.1c1.3-0.7,2.8-1,4.3-1c1.8,0,3.5,0.2,5.2,0.2c1.1,0,2.1-0.1,3.1-0.4c0.2-0.1,0.5-0.3,0.7-0.5
			c0.4-0.3,0.5-0.7-0.2-1.1C362.8,416.3,357.4,417.4,354.1,421.2z"/>
		<path class="st6" d="M366.6,418.6l2.7-0.5c0.7,0,0.7,0.4,0.2,0.5C368.6,418.5,366.7,418.9,366.6,418.6z"/>
	</g>
	<path class="st10" d="M354,420.8l0.1,0.1c1.2-1.1,2.7-1.6,4.3-1.4c1.8,0.1,3.5,0.7,5.3,0.8c1.1,0.1,2.1-0.1,3.1-0.5
		c0.2-0.2,0.5-0.5,0.7-0.8c0.4-0.5,0.3-1.3-0.2-1.8c0,0-0.1-0.1-0.1-0.1C359.9,411,354.9,418.7,354,420.8z"/>
	<path class="st10" d="M366.4,417.5l2.7-0.7c0.7,0,0.8,0.8,0.2,0.9C368.5,417.5,366.6,418,366.4,417.5z"/>
	<path class="st9" d="M354,420.8l0.1,0.1c1.2-1.1,2.7-1.6,4.3-1.4c1.8,0.1,3.5,0.7,5.3,0.8c1.1,0.1,2.1-0.1,3.1-0.5
		c0.2-0.2,0.5-0.5,0.7-0.8c0.4-0.5,0.3-1.3-0.2-1.8c0,0-0.1-0.1-0.1-0.1C359.9,411,354.9,418.7,354,420.8z"/>
	<path class="st14" d="M148.1,416.8h-0.2c-1.6-1.2-3.5-2-5.4-2.4c-2.3-0.5-4.6-0.5-6.9-1c-1.4-0.2-2.7-0.7-4-1.3
		c-0.3-0.2-0.6-0.5-0.8-0.8c-0.4-0.5-0.5-1.1,0.6-1.3C137.7,408.3,144.6,411.1,148.1,416.8z"/>
	<path class="st14" d="M132.3,410.5l-3.4-1.3c-0.9-0.2-1,0.4-0.4,0.6C129.7,409.9,132,410.9,132.3,410.5z"/>
	<g class="st20">
		<path class="st6" d="M148.1,416.8h-0.2c-1.6-1.2-3.5-2-5.4-2.4c-2.3-0.5-4.6-0.5-6.9-1c-1.4-0.2-2.7-0.7-4-1.3
			c-0.3-0.2-0.6-0.5-0.8-0.8c-0.4-0.5-0.5-1.1,0.6-1.3C137.7,408.3,144.6,411.1,148.1,416.8z"/>
		<path class="st6" d="M132.3,410.5l-3.4-1.3c-0.9-0.2-1,0.4-0.4,0.6C129.7,409.9,132,410.9,132.3,410.5z"/>
	</g>
	<path class="st10" d="M148.2,416.4l-0.2,0c-1.3-1.7-3.2-2.7-5.3-2.9c-2.4-0.3-4.8,0-7.1-0.2c-1.4-0.1-2.8-0.6-4-1.4
		c-0.3-0.4-0.5-0.8-0.7-1.2c-0.4-0.8-0.2-1.8,0.7-2.3c0.1,0,0.1-0.1,0.2-0.1C142.9,402.2,147.6,413.4,148.2,416.4z"/>
	<path class="st10" d="M132.7,409l-3.4-1.5c-1-0.1-1.2,0.8-0.6,1.1C130.1,408.6,132.4,409.7,132.7,409z"/>
	<path class="st9" d="M148.2,416.4l-0.2,0c-1.3-1.7-3.2-2.7-5.3-2.9c-2.4-0.3-4.8,0-7.1-0.2c-1.4-0.1-2.8-0.6-4-1.4
		c-0.3-0.4-0.5-0.8-0.7-1.2c-0.4-0.8-0.2-1.8,0.7-2.3c0.1,0,0.1-0.1,0.2-0.1C142.9,402.2,147.6,413.4,148.2,416.4z"/>
</g>
</svg>
