<svg width="69" height="28" viewBox="0 0 69 28" fill="none" xmlns="http://www.w3.org/2000/svg">
<g clip-path="url(#clip0_10873_6693)">
<path d="M53.1609 0.164839H60.1609C60.7468 0.124741 61.3349 0.124741 61.9209 0.164839C63.8496 0.386003 65.6293 1.30959 66.9204 2.75934C68.2115 4.2091 68.9237 6.0835 68.9209 8.02484C68.9209 10.6648 68.9209 13.3148 68.9209 15.9548H66.1609C66.0609 15.9548 65.9508 15.9548 65.8608 15.9548C65.8608 16.9548 65.8608 18.0548 65.8608 19.0948H50.0009C50.0009 18.0948 50.0009 17.0948 50.0009 16.0948C50.0009 11.8248 50.0009 7.55484 50.0009 3.28484H53.1609C53.1609 6.88484 53.1609 10.4848 53.1609 14.0848C53.1609 14.7148 53.1609 15.3348 53.1609 15.9648H65.8209C65.8209 13.3248 65.8209 10.6748 65.8209 8.03484C65.803 6.8017 65.3072 5.62363 64.438 4.74879C63.5687 3.87394 62.3939 3.37062 61.1609 3.34484H53.1609C53.1609 2.43484 53.1609 1.52484 53.1609 0.614839C53.1501 0.465031 53.1501 0.314648 53.1609 0.164839ZM14.4909 3.35484H15.7009C15.7009 3.96484 15.6309 4.55484 15.6109 5.16484C15.4907 6.29558 15.3004 7.41775 15.0409 8.52484C14.8942 9.23818 14.7072 9.94265 14.4809 10.6348C13.9892 12.1117 13.2743 13.5045 12.3609 14.7648C11.3589 16.2469 10.0231 17.4732 8.46085 18.3448C7.14095 19.0397 5.64384 19.3252 4.16085 19.1648C3.28017 19.0858 2.44543 18.7365 1.77085 18.1648C0.814381 17.2867 0.237 16.071 0.160854 14.7748C0.0819694 13.7903 0.149368 12.7996 0.360854 11.8348C0.561526 10.9623 0.82898 10.1064 1.16085 9.27484C1.85406 7.67883 2.64903 6.12897 3.54085 4.63484C3.59085 4.49484 3.73085 4.47484 3.86085 4.49484C3.87297 4.94325 3.78053 5.38833 3.59085 5.79484C2.92087 7.15977 2.3299 8.56208 1.82085 9.99484C1.50106 11.0781 1.55745 12.2377 1.98085 13.2848C2.19609 13.72 2.50201 14.104 2.87803 14.411C3.25406 14.718 3.69147 14.941 4.16085 15.0648C5.03824 15.2928 5.95013 15.3573 6.85085 15.2548C8.51278 15.1335 10.0847 14.4532 11.3109 13.3248C11.9809 12.6797 12.5687 11.9542 13.0609 11.1648C13.5458 10.4393 13.8414 9.6039 13.9209 8.73484C13.9209 7.60484 13.9709 6.47484 14.0009 5.35484C14.0584 4.66662 14.2237 3.99171 14.4909 3.35484ZM16.4909 3.35484C16.8709 3.35484 17.2609 3.35484 17.6409 3.35484C17.2331 5.71391 17.0091 8.10109 16.9709 10.4948C16.9645 11.1003 17.1657 11.6896 17.5409 12.1648C17.6583 12.3205 17.8091 12.4479 17.9821 12.5379C18.1551 12.6278 18.346 12.6781 18.5409 12.6848C18.6378 12.5751 18.7095 12.4454 18.7509 12.3048C18.9609 11.7748 19.1309 11.2348 19.3509 10.7148C19.5324 10.745 19.7038 10.8191 19.8502 10.9307C19.9966 11.0422 20.1135 11.1878 20.1909 11.3548C20.4359 11.963 20.4676 12.6363 20.2809 13.2648C20.1077 14.22 19.687 15.1131 19.0609 15.8548C18.837 16.0914 18.5587 16.2697 18.2502 16.3743C17.9418 16.4789 17.6124 16.5065 17.2909 16.4548C16.8534 16.3405 16.4707 16.0748 16.2109 15.7048C15.83 15.2675 15.5743 14.7354 15.4709 14.1648C15.3708 13.2977 15.3708 12.422 15.4709 11.5548C15.8009 8.82484 16.0809 6.09484 16.4709 3.37484L16.4909 3.35484ZM22.0409 3.37484H23.1609C22.7299 5.80116 22.5125 8.26056 22.5109 10.7248C22.5417 11.2263 22.6744 11.7163 22.9009 12.1648C23.0492 12.4299 23.2559 12.6578 23.5054 12.831C23.7549 13.0043 24.0406 13.1185 24.3409 13.1648C24.7062 13.2291 25.0806 13.2207 25.4427 13.14C25.8047 13.0594 26.1473 12.9081 26.4509 12.6948C26.8013 12.3692 27.1684 12.0622 27.5509 11.7748C28.0809 11.3848 28.8109 11.8848 29.3409 11.4948C29.7751 11.1735 30.0688 10.6971 30.1609 10.1648C30.4809 10.1648 30.8909 10.2648 31.1609 9.96484C31.4047 9.51691 31.6089 9.04845 31.7709 8.56484C31.7709 8.48484 31.8909 8.47484 31.9709 8.44484C32.0103 8.5711 32.0305 8.70257 32.0309 8.83484C31.9721 9.69455 31.6704 10.5199 31.1609 11.2148C31.0243 11.5091 30.8182 11.7657 30.5604 11.9626C30.3025 12.1594 30.0007 12.2906 29.6809 12.3448C29.3409 12.8348 29.0309 13.4148 28.4409 13.6348C28.0409 13.7148 27.6309 13.5248 27.2309 13.6348C26.8249 13.8002 26.4769 14.082 26.2309 14.4448C25.7752 15.1073 25.2224 15.6972 24.5909 16.1948C24.286 16.3939 23.9371 16.5153 23.5745 16.5484C23.2119 16.5815 22.8467 16.5254 22.5109 16.3848C22.0695 16.1807 21.715 15.8262 21.5109 15.3848C21.198 14.6855 21.028 13.9308 21.0109 13.1648C20.9958 12.3123 21.0459 11.4598 21.1609 10.6148C21.4509 8.20484 21.7009 5.79484 22.0609 3.39484L22.0409 3.37484ZM46.4309 3.49484C46.5009 3.39484 46.6509 3.32484 46.7409 3.44484C46.8165 3.63078 46.8165 3.8389 46.7409 4.02484C46.3646 5.19062 45.6722 6.22915 44.7409 7.02484C44.4696 7.27903 44.1126 7.42183 43.7409 7.42484C43.3309 7.42484 43.0409 7.00484 42.6309 6.96484C42.3849 6.94541 42.1377 6.98314 41.9087 7.07509C41.6797 7.16703 41.4751 7.31069 41.3109 7.49484C41.1831 7.58904 41.0781 7.71074 41.0037 7.85093C40.9293 7.99113 40.8873 8.14625 40.8809 8.30484C40.9197 8.48434 40.9959 8.65367 41.1044 8.80182C41.213 8.94998 41.3514 9.07366 41.5109 9.16484C41.846 9.39354 42.143 9.67364 42.3909 9.99484C42.4403 10.1031 42.466 10.2208 42.466 10.3398C42.466 10.4589 42.4403 10.5766 42.3909 10.6848C42.2268 11.2251 41.9584 11.7279 41.6009 12.1648C41.4736 12.2951 41.3133 12.3882 41.137 12.434C40.9608 12.4798 40.7754 12.4767 40.6009 12.4248C40.0324 12.2154 39.4216 12.1467 38.8209 12.2248C38.1109 12.3748 37.7109 13.0248 37.2809 13.5448C36.6522 14.44 35.8821 15.2269 35.0009 15.8748C34.2848 16.3562 33.4132 16.5491 32.5609 16.4148C31.9519 16.146 31.3036 15.9772 30.6409 15.9148C30.0159 15.9395 29.4086 16.1292 28.8809 16.4648C28.7717 16.5577 28.6341 16.6107 28.4909 16.6148C28.0909 16.6148 27.6809 16.6148 27.2809 16.6148C27.3136 16.5428 27.3503 16.4727 27.3909 16.4048C28.0896 15.4314 28.9096 14.551 29.8309 13.7848C30.4525 13.0946 31.2122 12.5427 32.0609 12.1648C32.6897 11.95 33.372 11.95 34.0009 12.1648C34.3221 12.3038 34.6573 12.4077 35.0009 12.4748C35.6383 12.5017 36.267 12.3191 36.7909 11.9548C37.6561 11.2331 38.402 10.3793 39.0009 9.42484C39.3486 8.65214 39.7357 7.89781 40.1609 7.16484C40.7245 6.29028 41.4761 5.55239 42.3609 5.00484C42.5841 4.85361 42.8356 4.74908 43.1002 4.69752C43.3649 4.64597 43.6372 4.64846 43.9009 4.70484C44.3409 4.76484 44.7509 5.14484 45.2009 4.92484C45.6509 4.70484 46.0009 3.92484 46.4209 3.46484L46.4309 3.49484ZM8.50085 4.43484C9.17179 4.70809 9.77064 5.13242 10.2509 5.67484C10.5197 5.93986 10.6771 6.29759 10.6909 6.67484C10.722 6.98551 10.6912 7.29927 10.6002 7.59795C10.5092 7.89663 10.3599 8.17429 10.1609 8.41484C9.88082 8.79752 9.54353 9.1348 9.16085 9.41484C9.01085 9.54484 8.84085 9.41484 8.71085 9.33484C8.1429 8.98034 7.59843 8.58952 7.08085 8.16484C6.95929 8.06183 6.85468 7.94035 6.77085 7.80484C7.2155 6.61849 7.79603 5.48762 8.50085 4.43484ZM37.4009 17.5348C37.765 16.5884 38.2346 15.6861 38.8009 14.8448C39.239 15.1337 39.6447 15.4689 40.0109 15.8448C40.1675 16.022 40.2756 16.2367 40.3246 16.468C40.3737 16.6993 40.3621 16.9394 40.2909 17.1648C40.1132 17.9 39.6854 18.5504 39.0809 19.0048C38.9109 19.1148 38.7609 18.9348 38.6309 18.8448C38.3009 18.5448 37.9309 18.2748 37.6309 17.9848C37.5209 17.8748 37.3509 17.7448 37.4309 17.5748L37.4009 17.5348ZM40.2909 17.5748C40.6631 16.6321 41.1323 15.7306 41.6909 14.8848C42.1328 15.1685 42.5391 15.5042 42.9009 15.8848C43.0498 16.0583 43.1519 16.267 43.1974 16.491C43.2429 16.7151 43.2303 16.947 43.1609 17.1648C42.979 17.9007 42.5479 18.5509 41.9409 19.0048C41.7709 19.1148 41.6209 18.9348 41.4909 18.8448C41.1609 18.5448 40.8009 18.2848 40.4909 17.9848C40.3909 17.8748 40.2209 17.7448 40.2909 17.5748ZM45.2909 14.8948C45.7762 15.1951 46.2115 15.5697 46.5809 16.0048C46.7231 16.2064 46.81 16.4418 46.8328 16.6875C46.8556 16.9332 46.8136 17.1805 46.7109 17.4048C46.553 17.8941 46.2824 18.3394 45.9209 18.7048C45.7809 18.8348 45.6409 19.0248 45.4309 19.0448C45.2511 18.9489 45.0861 18.8277 44.9409 18.6848C44.6409 18.4248 44.3109 18.1948 44.0209 17.9148C43.9409 17.8248 43.8209 17.7148 43.8809 17.5848C44.2483 16.6381 44.7213 15.7357 45.2909 14.8948ZM1.54085 22.0148C2.26154 21.85 3.01016 21.85 3.73085 22.0148C3.73085 22.3448 3.78085 22.6648 3.81085 23.0148C3.32685 22.8165 2.80041 22.7442 2.28085 22.8048C2.02085 22.8748 1.72085 23.0448 1.69085 23.3448C1.68822 23.4744 1.71793 23.6027 1.77729 23.7179C1.83666 23.8331 1.9238 23.9317 2.03085 24.0048C2.26085 24.2148 2.51085 24.3948 2.73085 24.6048C3.15152 24.9202 3.51079 25.3099 3.79085 25.7548C3.90012 26.0225 3.9232 26.3176 3.85688 26.599C3.79056 26.8804 3.63814 27.1341 3.42085 27.3248C3.04724 27.6273 2.58155 27.7931 2.10085 27.7948C1.47561 27.8234 0.850061 27.7456 0.250854 27.5648C0.250854 27.2348 0.250854 26.9048 0.190854 26.5648C0.768669 26.8429 1.41582 26.9438 2.05085 26.8548C2.19812 26.8367 2.33449 26.7679 2.43665 26.6603C2.5388 26.5526 2.60038 26.4129 2.61085 26.2648C2.60932 26.1579 2.58328 26.0527 2.53474 25.9573C2.4862 25.862 2.41645 25.779 2.33085 25.7148C1.81085 25.2148 1.21085 24.7948 0.740854 24.2448C0.59011 24.0743 0.484569 23.8687 0.433903 23.6468C0.383236 23.4249 0.389065 23.1939 0.450854 22.9748C0.529753 22.7277 0.67182 22.5054 0.862996 22.33C1.05417 22.1546 1.28783 22.0322 1.54085 21.9748V22.0148ZM30.0909 21.9748C30.5309 21.9748 30.9709 21.9748 31.4209 21.9748C31.3109 23.8848 31.2309 25.7948 31.2109 27.7048C30.7609 27.7048 30.3209 27.7048 29.8709 27.7048C29.9809 25.7948 30.1109 23.8948 30.0909 21.9748ZM5.16085 23.6248C5.94317 23.4003 6.76149 23.329 7.57085 23.4148C7.76184 23.4255 7.94874 23.4743 8.12051 23.5585C8.29228 23.6427 8.44541 23.7604 8.57085 23.9048C8.73413 24.2112 8.78373 24.5654 8.71085 24.9048C8.65085 25.8548 8.60085 26.8048 8.58085 27.7648C8.19085 27.7648 7.80085 27.7648 7.40085 27.7648C7.48085 27.0248 7.49085 26.2948 7.54085 25.5648C7.03085 25.9048 6.37085 25.8748 5.87085 26.2348C5.77607 26.3014 5.70473 26.3963 5.66702 26.5058C5.62931 26.6154 5.62715 26.734 5.66085 26.8448C5.70151 26.9346 5.76399 27.0127 5.8426 27.0721C5.9212 27.1315 6.01342 27.1702 6.11085 27.1848C6.41973 27.2236 6.7333 27.1963 7.03085 27.1048C7.03085 27.3348 6.91085 27.5648 6.85085 27.7948C6.28961 27.9089 5.70882 27.8814 5.16085 27.7148C4.98805 27.6395 4.83623 27.5231 4.71851 27.3759C4.6008 27.2286 4.52075 27.0549 4.4853 26.8697C4.44984 26.6846 4.46005 26.4936 4.51503 26.3132C4.57001 26.1329 4.66812 25.9687 4.80085 25.8348C5.43808 25.4044 6.16783 25.1303 6.93085 25.0348C7.17085 24.9748 7.46085 24.8248 7.47085 24.5448C7.48085 24.2648 7.24085 24.0848 7.00085 24.0548C6.31935 24.0064 5.6357 24.1123 5.00085 24.3648C5.00085 24.1248 5.07085 23.8748 5.10085 23.6248H5.16085ZM11.4109 23.5748C11.6592 23.4566 11.9308 23.3953 12.2059 23.3953C12.4809 23.3953 12.7525 23.4566 13.0009 23.5748C13.2342 23.7016 13.415 23.9072 13.5109 24.1548C13.671 23.926 13.8792 23.7349 14.1209 23.5948C14.3759 23.4818 14.6519 23.4235 14.9309 23.4235C15.2099 23.4235 15.4858 23.4818 15.7409 23.5948C15.931 23.6794 16.0901 23.8212 16.1959 24.0004C16.3016 24.1797 16.3488 24.3875 16.3309 24.5948C16.3309 25.6548 16.1909 26.7148 16.2009 27.7748C15.8009 27.7748 15.4009 27.7748 15.0009 27.7748C15.0509 26.9148 15.1209 26.0448 15.1409 25.1848C15.1631 25.0567 15.1538 24.9251 15.1137 24.8014C15.0736 24.6777 15.004 24.5656 14.9109 24.4748C14.748 24.364 14.5492 24.3188 14.3544 24.3485C14.1596 24.3782 13.9833 24.4805 13.8609 24.6348C13.6361 24.9755 13.5209 25.3768 13.5309 25.7848C13.5309 26.4448 13.4709 27.1148 13.4709 27.7848H12.2709C12.3309 26.9548 12.3809 26.1348 12.4109 25.3048C12.4517 25.0391 12.391 24.7678 12.2409 24.5448C12.1079 24.4129 11.9282 24.3389 11.7409 24.3389C11.5535 24.3389 11.3738 24.4129 11.2409 24.5448C10.9849 24.8571 10.85 25.2512 10.8609 25.6548C10.7993 26.3464 10.7726 27.0406 10.7809 27.7348H9.62085C9.68085 26.3148 9.79085 24.9048 9.79085 23.4848C10.1709 23.4848 10.5409 23.4848 10.9209 23.4848C10.9209 23.6948 10.9209 23.9048 10.9209 24.1148C11.0699 23.8987 11.2645 23.7178 11.4909 23.5848L11.4109 23.5748ZM17.7709 23.5848C18.4627 23.407 19.1772 23.3329 19.8909 23.3648C20.3186 23.3671 20.7295 23.5315 21.0409 23.8248C21.2457 24.1747 21.31 24.5893 21.2209 24.9848C21.1609 25.8948 21.1009 26.7948 21.1009 27.7048H19.9109C19.9709 26.9848 20.0309 26.2548 20.0309 25.5348C19.5609 25.7848 19.0309 25.8348 18.5509 26.0648C18.4394 26.104 18.342 26.1752 18.2709 26.2695C18.1997 26.3637 18.158 26.4769 18.1509 26.5948C18.1482 26.7086 18.183 26.8201 18.2498 26.9123C18.3167 27.0044 18.4119 27.072 18.5209 27.1048C18.8544 27.162 19.1966 27.1415 19.5209 27.0448C19.4609 27.2748 19.3909 27.5148 19.3209 27.7448C18.776 27.8538 18.2126 27.8263 17.6809 27.6648C17.5136 27.5892 17.3669 27.4747 17.253 27.3308C17.139 27.1869 17.0612 27.0179 17.026 26.8378C16.9907 26.6576 16.9991 26.4717 17.0504 26.2955C17.1017 26.1193 17.1944 25.9579 17.3209 25.8248C18.0046 25.3756 18.7802 25.0852 19.5909 24.9748C19.7099 24.9496 19.8167 24.8841 19.8932 24.7894C19.9697 24.6947 20.0112 24.5766 20.0109 24.4548C19.9973 24.3448 19.9461 24.2428 19.8659 24.1662C19.7857 24.0897 19.6814 24.0433 19.5709 24.0348C18.8903 23.9876 18.2076 24.09 17.5709 24.3348C17.5932 24.076 17.647 23.8208 17.7309 23.5748L17.7709 23.5848ZM24.0909 23.5748C24.6329 23.3363 25.241 23.2939 25.8109 23.4548C26.0373 23.5016 26.2433 23.6186 26.3995 23.7892C26.5556 23.9597 26.6541 24.1751 26.6809 24.4048C26.7208 24.9174 26.7208 25.4323 26.6809 25.9448C26.6809 26.5348 26.6209 27.1248 26.6209 27.7148H25.4109C25.4709 26.9148 25.5209 26.1148 25.5409 25.3148C25.5667 25.0598 25.4992 24.804 25.3509 24.5948C25.2236 24.4646 25.0633 24.3715 24.887 24.3257C24.7108 24.2799 24.5254 24.283 24.3509 24.3348C24.1242 24.4005 23.9211 24.5295 23.7652 24.7066C23.6093 24.8838 23.5072 25.1017 23.4709 25.3348C23.3625 26.1202 23.309 26.9121 23.3109 27.7048C22.9109 27.7048 22.5109 27.7048 22.1109 27.7048C22.2109 26.2848 22.3209 24.8748 22.3309 23.4548H23.5209C23.5209 23.6748 23.5209 23.8848 23.5209 24.0948C23.6925 23.8847 23.8988 23.7054 24.1309 23.5648L24.0909 23.5748ZM34.4209 23.5148C34.9566 23.3134 35.5441 23.2958 36.0909 23.4648C36.2541 23.5133 36.4044 23.5978 36.5307 23.712C36.6571 23.8262 36.7562 23.9673 36.8209 24.1248C36.9224 24.4753 36.9497 24.8432 36.9009 25.2048C36.9009 26.0348 36.8009 26.8748 36.7909 27.7148C36.4009 27.7148 36.0009 27.7148 35.6009 27.7148C35.6009 26.8848 35.7109 26.0648 35.7209 25.2448C35.7356 25.101 35.7151 24.9557 35.6611 24.8215C35.6071 24.6873 35.5212 24.5683 35.4109 24.4748C35.1842 24.3299 34.913 24.2713 34.6468 24.3099C34.3805 24.3484 34.137 24.4815 33.9609 24.6848C33.7296 25.0097 33.6008 25.3962 33.5909 25.7948C33.5409 26.4348 33.5109 27.0748 33.4909 27.7148C33.0909 27.7148 32.6909 27.7148 32.2809 27.7148C32.4109 26.3048 32.5009 24.8848 32.5109 23.4648C32.9109 23.4648 33.3009 23.4648 33.7009 23.4648C33.7009 23.6848 33.7009 23.9148 33.7009 24.1348C33.8802 23.859 34.1379 23.6431 34.4409 23.5148H34.4209ZM38.4409 23.5848C38.8369 23.3988 39.2747 23.3195 39.7109 23.3548C40.0708 23.3713 40.4288 23.4181 40.7809 23.4948C40.7809 23.7748 40.7809 24.0548 40.7809 24.3348C40.3173 24.1453 39.8042 24.1137 39.3209 24.2448C39.2659 24.2706 39.2179 24.3092 39.181 24.3573C39.144 24.4054 39.1191 24.4617 39.1083 24.5214C39.0975 24.5812 39.1012 24.6426 39.119 24.7006C39.1369 24.7586 39.1684 24.8115 39.2109 24.8548C39.6109 25.2848 40.2109 25.5348 40.5209 26.0248C40.6435 26.2009 40.7092 26.4103 40.7092 26.6248C40.7092 26.8394 40.6435 27.0488 40.5209 27.2248C40.3719 27.4018 40.1869 27.5451 39.9783 27.6451C39.7697 27.7451 39.5422 27.7996 39.3109 27.8048C38.7547 27.8348 38.1974 27.774 37.6609 27.6248C37.6609 27.3248 37.6009 27.0248 37.6009 26.7248C38.0699 26.951 38.594 27.0378 39.1109 26.9748C39.2198 26.9652 39.3215 26.9163 39.3969 26.8371C39.4724 26.758 39.5164 26.6541 39.5209 26.5448C39.5209 26.2448 39.2109 26.0948 39.0209 25.9248C38.6509 25.6148 38.1809 25.3548 38.0209 24.9248C37.9206 24.6936 37.9069 24.4341 37.9822 24.1936C38.0574 23.9531 38.2167 23.7477 38.4309 23.6148L38.4409 23.5848ZM48.8509 23.5048C49.1388 23.3869 49.4541 23.3522 49.7609 23.4048C49.7609 23.7348 49.7609 24.0748 49.7609 24.4048C49.597 24.3499 49.4235 24.3295 49.2514 24.345C49.0793 24.3605 48.9123 24.4115 48.7609 24.4948C48.5808 24.6151 48.4322 24.7769 48.3278 24.9666C48.2234 25.1563 48.1661 25.3684 48.1609 25.5848C48.1009 26.2948 48.0909 27.0148 48.1009 27.7348C47.7009 27.7348 47.3109 27.7348 46.9109 27.7348C46.9809 26.3148 47.1009 24.9048 47.0609 23.4848H48.1609C48.1609 23.6748 48.1609 23.8548 48.1609 24.0348C48.3255 23.8142 48.5373 23.6332 48.7809 23.5048H48.8509ZM51.0209 23.5048C51.856 23.2798 52.7358 23.2798 53.5709 23.5048C53.761 23.5717 53.9243 23.6986 54.0362 23.8663C54.148 24.034 54.2023 24.2336 54.1909 24.4348C54.1909 25.5248 54.0409 26.6048 54.0509 27.6848H52.9009C52.9009 26.9648 53.0209 26.2348 53.0209 25.5148C52.5009 25.7948 51.8809 25.8148 51.3809 26.1348C51.3127 26.1839 51.2572 26.2485 51.2189 26.3233C51.1807 26.3981 51.1607 26.4808 51.1607 26.5648C51.1607 26.6488 51.1807 26.7316 51.2189 26.8064C51.2572 26.8811 51.3127 26.9457 51.3809 26.9948C51.7624 27.1499 52.1893 27.1499 52.5709 26.9948C52.5109 27.2248 52.4409 27.4648 52.3709 27.6948C51.8088 27.8056 51.228 27.7747 50.6809 27.6048C50.4678 27.4961 50.2932 27.3247 50.1806 27.1138C50.068 26.9028 50.0227 26.6623 50.0509 26.4248C50.0839 26.2262 50.1637 26.0383 50.2837 25.8766C50.4037 25.7149 50.5604 25.5841 50.7409 25.4948C51.3546 25.2447 51.9908 25.0539 52.6409 24.9248C52.7599 24.8996 52.8667 24.8341 52.9432 24.7394C53.0196 24.6447 53.0612 24.5266 53.0609 24.4048C53.0451 24.2939 52.9919 24.1918 52.91 24.1154C52.8282 24.0389 52.7226 23.9929 52.6109 23.9848C51.9303 23.9382 51.2478 24.0406 50.6109 24.2848C50.6109 24.0448 50.6809 23.8048 50.7409 23.5748C50.8009 23.3448 50.9709 23.4848 51.0809 23.4548L51.0209 23.5048ZM57.1409 23.5048C57.6664 23.2724 58.2556 23.2265 58.8109 23.3748C59.016 23.412 59.2071 23.5042 59.3639 23.6416C59.5207 23.779 59.6371 23.9564 59.7009 24.1548C59.756 24.5596 59.756 24.97 59.7009 25.3748C59.7009 26.1348 59.6109 26.8848 59.6109 27.6448H58.4009C58.4609 26.8248 58.5209 26.0048 58.5309 25.1848C58.5422 25.0586 58.5277 24.9315 58.4881 24.8111C58.4486 24.6907 58.3849 24.5797 58.3009 24.4848C58.1695 24.3615 58.0072 24.2759 57.8311 24.2371C57.6551 24.1984 57.4719 24.208 57.3009 24.2648C57.0742 24.3305 56.8711 24.4595 56.7152 24.6366C56.5593 24.8138 56.4572 25.0317 56.4209 25.2648C56.3125 26.0502 56.259 26.8421 56.2609 27.6348C55.8609 27.6348 55.4609 27.6348 55.0609 27.6348C55.1609 26.2148 55.2609 24.8048 55.2809 23.3848H56.4609C56.4609 23.6048 56.4609 23.8148 56.4609 24.0248C56.6383 23.8167 56.8476 23.6378 57.0809 23.4948L57.1409 23.5048ZM61.9109 23.3848C62.602 23.2346 63.3194 23.2552 64.0009 23.4448C64.0009 23.7448 64.0509 24.0448 64.0509 24.3448C63.581 24.1731 63.0757 24.1215 62.5809 24.1948C62.3852 24.2452 62.2059 24.3453 62.0605 24.4855C61.915 24.6257 61.8084 24.8012 61.7509 24.9948C61.6173 25.4008 61.6173 25.8389 61.7509 26.2448C61.8305 26.4181 61.955 26.567 62.1115 26.676C62.2679 26.785 62.4507 26.8502 62.6409 26.8648C63.0639 26.8913 63.4881 26.837 63.8909 26.7048C63.8627 27.0121 63.8092 27.3164 63.7309 27.6148C63.1178 27.7597 62.4819 27.7801 61.8609 27.6748C61.5652 27.6081 61.2923 27.465 61.0694 27.2596C60.8466 27.0543 60.6815 26.794 60.5909 26.5048C60.3846 25.8498 60.4093 25.1438 60.6609 24.5048C60.762 24.2348 60.9265 23.9931 61.1406 23.7999C61.3546 23.6067 61.6119 23.4678 61.8909 23.3948L61.9109 23.3848ZM66.0309 23.3948C66.6208 23.2148 67.251 23.2148 67.8409 23.3948C68.0853 23.4845 68.3041 23.6325 68.4784 23.826C68.6526 24.0194 68.7771 24.2524 68.8409 24.5048C68.9061 24.835 68.9061 25.1747 68.8409 25.5048C67.8409 25.5048 66.7809 25.5048 65.7409 25.5048C65.703 25.826 65.7659 26.151 65.9209 26.4348C66.0645 26.6286 66.2564 26.7814 66.4775 26.8779C66.6986 26.9744 66.9411 27.0113 67.1808 26.9848C67.6219 26.9426 68.0575 26.8555 68.4809 26.7248C68.4513 27.0114 68.4012 27.2955 68.3308 27.5748C68.2709 27.6448 68.1609 27.6248 68.0808 27.6448C67.4198 27.7673 66.7419 27.7673 66.0808 27.6448C65.8035 27.5917 65.5427 27.4732 65.3201 27.2994C65.0976 27.1255 64.9196 26.9011 64.8008 26.6448C64.6476 26.2984 64.5685 25.9237 64.5685 25.5448C64.5685 25.166 64.6476 24.7913 64.8008 24.4448C64.9114 24.2102 65.0686 24.0004 65.2629 23.8285C65.4572 23.6566 65.6845 23.526 65.9308 23.4448L66.0309 23.3948ZM66.5408 24.0548C66.3241 24.1188 66.1335 24.2503 65.9968 24.4302C65.8601 24.61 65.7844 24.8289 65.7809 25.0548H67.7809C67.8082 24.7718 67.7259 24.489 67.5508 24.2648C67.4174 24.1449 67.2542 24.063 67.0783 24.0278C66.9023 23.9926 66.7201 24.0054 66.5508 24.0648L66.5408 24.0548ZM41.5509 23.4248C41.9509 23.4248 42.3409 23.4248 42.7409 23.4248C42.7409 24.2648 42.6009 25.0948 42.5909 25.9348C42.5761 26.0724 42.5948 26.2115 42.6452 26.3403C42.6957 26.4692 42.7766 26.5839 42.8809 26.6748C43.1103 26.8185 43.3842 26.8734 43.6513 26.8292C43.9183 26.785 44.16 26.6448 44.3309 26.4348C44.5349 26.0683 44.6384 25.6543 44.6309 25.2348C44.6309 24.6348 44.7109 24.0448 44.6909 23.4448C45.0909 23.4448 45.5009 23.4448 45.9009 23.4448C45.7909 24.8548 45.7009 26.2648 45.6909 27.6848H44.7709C44.7709 27.4648 44.7709 27.2448 44.7709 27.0248C44.6267 27.2189 44.4549 27.3907 44.2609 27.5348C43.8261 27.756 43.3333 27.8364 42.8509 27.7648C42.6328 27.7603 42.4191 27.7035 42.2276 27.5991C42.0362 27.4946 41.8727 27.3457 41.7509 27.1648C41.5961 26.7778 41.5545 26.3547 41.6309 25.9448C41.6909 25.1148 41.7309 24.2848 41.7409 23.4548L41.5509 23.4248Z" fill="#14317A"/>
<path d="M58.8699 6.23451C59.6339 6.09749 60.4217 6.21903 61.1089 6.57991C61.796 6.9408 62.3432 7.52043 62.664 8.22717C62.9848 8.93391 63.0609 9.72741 62.8802 10.4822C62.6995 11.237 62.2723 11.9101 61.6663 12.3949C61.0602 12.8798 60.3098 13.1488 59.5338 13.1594C58.7577 13.17 58.0002 12.9216 57.3812 12.4535C56.7621 11.9853 56.3167 11.3242 56.1155 10.5746C55.9142 9.82504 55.9686 9.02975 56.27 8.31451C56.4973 7.77967 56.8538 7.30963 57.3076 6.9466C57.7614 6.58356 58.2983 6.33888 58.8699 6.23451Z" fill="#FF0000"/>
</g>
<defs>
<clipPath id="clip0_10873_6693">
<rect width="68.84" height="27.67" fill="white" transform="translate(0.160156 0.165039)"/>
</clipPath>
</defs>
</svg>
